<svg xmlns="http://www.w3.org/2000/svg" width="45" height="45" viewBox="0 0 45 45"><defs><style>.cls-2{fill:#949083}.cls-6{fill:#fff}</style></defs><g id="icon-medal" transform="translate(-1284.77 -1968.417)"><path id="area" fill="none" d="M0 0h45v45H0z" transform="translate(1284.77 1968.418)"/><g id="그룹_26453" transform="translate(1292.951 1968.417)"><path id="패스_44843" d="M1370.48 1968.5l-4.555 14.55h10.089l5.178-14.55z" class="cls-2" transform="translate(-1356.476 -1968.428)"/><path id="패스_44844" d="M1370.493 2027.355l-4.568 14.62h10.089l.553-1.64z" transform="translate(-1356.476 -2027.355)" style="mix-blend-mode:multiply;isolation:isolate" fill="#b9b091" opacity=".61"/><path id="패스_44845" fill="#e3ce61" d="M1334.826 2100.911v-3.176a2.361 2.361 0 00-2.365-2.351h-9.738a2.361 2.361 0 00-2.365 2.351v3.176a14.318 14.318 0 1014.467 0zm-12.8-.833v-2.343a.694.694 0 01.7-.692h9.738a.694.694 0 01.7.692v2.343a14.448 14.448 0 00-11.129 0z" transform="translate(-1313.274 -2082.423)"/><path id="패스_44846" fill="none" stroke="#fff" stroke-width=".5" d="M14.318 42.331A11.562 11.562 0 1125.952 30.77a11.611 11.611 0 01-11.634 11.561z"/><path id="패스_44847" d="M1404.718 2236.9a7.847 7.847 0 01-3.271 1.108l-.024-.219a7.621 7.621 0 003.4-1.214 3.183 3.183 0 00-.105.325z" class="cls-6" transform="translate(-1385.775 -2199.23)"/><path id="패스_44848" d="M1399.92 2143.673a1.675 1.675 0 00-.082-.15c-.457-.756-1.149-.877-2.182-.728a3.126 3.126 0 00.82.837 1.512 1.512 0 001.444.041z" class="cls-6" transform="translate(-1382.607 -2120.249)"/><path id="패스_44849" d="M1401.269 2149.193a1.685 1.685 0 01-1.367-.054 4.419 4.419 0 00-.552.436 1.338 1.338 0 001.919-.382z" class="cls-6" transform="translate(-1384.031 -2125.639)"/><path id="패스_44850" d="M1406.072 2139.885c-.028-.551-.265-.923-1.15-1.166a3.706 3.706 0 00.047.589 1.423 1.423 0 01.923.555c.063.007.095.01.18.022z" class="cls-6" transform="translate(-1388.719 -2116.868)"/><path id="패스_44851" d="M1413.7 2148.384a3.737 3.737 0 01-.011-.429c.078.026.115.038.208.073a1.443 1.443 0 00-.835-.991 5.735 5.735 0 00-1.2-.33c.36 1.36 1.006 1.658 1.838 1.677z" class="cls-6" transform="translate(-1394.552 -2123.592)"/><path id="패스_44852" d="M1412.409 2155.392c0-.029-.006-.057-.009-.084a1.8 1.8 0 01-1.324-.494 5.5 5.5 0 00-.773.3 1.511 1.511 0 002.106.278z" class="cls-6" transform="translate(-1393.245 -2130.416)"/><path id="패스_44853" d="M1421.139 2146.083c.27-.711.146-1.229-.743-1.786a4.225 4.225 0 00-.179.658 1.539 1.539 0 01.839 1.093z" class="cls-6" transform="translate(-1401.585 -2121.564)"/><path id="패스_44854" d="M1425.95 2157.443a1.547 1.547 0 00-.659-1.31 4.582 4.582 0 00-1.206-.625c.03 1.065.239 1.865 1.34 2.21a4.613 4.613 0 01.1-.536 4.921 4.921 0 01.425.261z" class="cls-6" transform="translate(-1404.839 -2131)"/><path id="패스_44855" d="M1421.625 2166.139c0-.075.01-.15.018-.219a1.78 1.78 0 01-1.1-.789 6.277 6.277 0 00-.938.151 1.618 1.618 0 002.02.857z" class="cls-6" transform="translate(-1401.07 -2139.1)"/><path id="패스_44856" d="M1433.376 2157.214c.5-.72.514-1.319-.314-2.14a5.1 5.1 0 00-.385.687 1.643 1.643 0 01.612 1.392z" class="cls-6" transform="translate(-1412.068 -2130.634)"/><path id="패스_44857" d="M1434.645 2169.608a1.654 1.654 0 00-.391-1.537 5 5 0 00-1.183-.935c-.17.974-.245 1.87.619 2.485a5.438 5.438 0 01.3-.688 6.209 6.209 0 01.655.675z" class="cls-6" transform="translate(-1412.31 -2140.785)"/><path id="패스_44858" d="M1427.85 2179.027a4.516 4.516 0 01.127-.443 1.669 1.669 0 01-.695-.886 7 7 0 00-1.068-.023c.414 1.095 1.006 1.325 1.636 1.352z" class="cls-6" transform="translate(-1406.631 -2149.648)"/><path id="패스_44859" d="M1442.427 2171.24a1.6 1.6 0 00.183-2.415 5.821 5.821 0 00-.59.679 1.75 1.75 0 01.331 1.637c.025.033.049.059.076.099z" class="cls-6" transform="translate(-1419.927 -2142.208)"/><path id="패스_44860" d="M1438.2 2182.568a1.765 1.765 0 00-.007-1.693 5.371 5.371 0 00-1.027-1.3 2.546 2.546 0 00-.151 2.65 6.247 6.247 0 01.619-.768 6.315 6.315 0 01.566 1.111z" class="cls-6" transform="translate(-1415.451 -2151.257)"/><path id="패스_44861" d="M1430.033 2191.078a4.385 4.385 0 01.32-.566 1.625 1.625 0 01-.36-.937 7.645 7.645 0 00-1.141-.266 1.846 1.846 0 001.181 1.769z" class="cls-6" transform="translate(-1408.85 -2159.449)"/><path id="패스_44862" d="M1446.552 2186.734a1.8 1.8 0 00.852-2.556 6.893 6.893 0 00-.826.6 1.861 1.861 0 01-.077 1.8l.051.156z" class="cls-6" transform="translate(-1423.697 -2155.13)"/><path id="패스_44863" d="M1436.978 2195.822a1.9 1.9 0 00.38-1.586 5.37 5.37 0 00-.683-1.655c-.729.835-1.366 1.8-.984 2.8a7.177 7.177 0 011.146-.742 6.5 6.5 0 01.141 1.183z" class="cls-6" transform="translate(-1414.508 -2162.2)"/><path id="패스_44864" d="M1428.393 2202.2a4.579 4.579 0 01.521-.5 1.738 1.738 0 01-.1-1.112 7.951 7.951 0 00-1.127-.582 1.92 1.92 0 00.706 2.194z" class="cls-6" transform="translate(-1407.819 -2168.458)"/><path id="패스_44865" d="M1445.915 2200.709a7.716 7.716 0 00-1.07.419 2.011 2.011 0 01-.5 1.709c0 .107 0 .214-.012.317a2.053 2.053 0 001.582-2.445z" class="cls-6" transform="translate(-1421.874 -2169.042)"/><path id="패스_44866" d="M1431.955 2208.523a5.628 5.628 0 00-.042-1.94c-.9.506-1.945 1.255-2.1 2.214a8.7 8.7 0 011.124-.349 6.861 6.861 0 01-.415 1.813 2.355 2.355 0 001.433-1.738z" class="cls-6" transform="translate(-1409.664 -2173.986)"/><path id="패스_44867" d="M1423.155 2211.243a1.794 1.794 0 01.324-.834 7.583 7.583 0 00-.937-.975 2.228 2.228 0 00-.3 2.262 5.944 5.944 0 01.913-.453z" class="cls-6" transform="translate(-1403.117 -2176.387)"/><path id="패스_44868" d="M1436.535 2218.8a9.049 9.049 0 00-1.273.082 2.5 2.5 0 01-1.584 1.806l-.043.1a2.445 2.445 0 002.9-1.988z" class="cls-6" transform="translate(-1412.874 -2184.272)"/><path id="패스_44869" d="M1417.671 2222.318a2.656 2.656 0 001.052-1.085 5.789 5.789 0 00.563-2.021c-2.17.564-3.459 1.5-3.12 3.553a3.979 3.979 0 001.505-.447z" class="cls-6" transform="translate(-1398.135 -2184.616)"/><path id="패스_44870" d="M1410.75 2221.183a2.68 2.68 0 01.826-2.469 7.9 7.9 0 00-.668-1.273 3.161 3.161 0 00-1.087 1.9 3.2 3.2 0 00.929 1.842z" class="cls-6" transform="translate(-1392.84 -2183.124)"/><path id="패스_44871" d="M1421.223 2232.94a9.677 9.677 0 00-1.359-.252 3.137 3.137 0 01-2.468 1.5 2.833 2.833 0 003.827-1.248z" class="cls-6" transform="translate(-1399.212 -2195.957)"/><path id="패스_44872" d="M1363.39 2236.9a7.845 7.845 0 003.271 1.108l.023-.219a7.618 7.618 0 01-3.4-1.214 3.343 3.343 0 01.106.325z" class="cls-6" transform="translate(-1353.695 -2199.23)"/><path id="패스_44873" d="M1374.188 2143.673a1.574 1.574 0 01.083-.15c.457-.756 1.149-.877 2.182-.728a3.129 3.129 0 01-.82.837 1.514 1.514 0 01-1.445.041z" class="cls-6" transform="translate(-1362.864 -2120.249)"/><path id="패스_44874" d="M1374.667 2149.193a1.684 1.684 0 001.367-.054 4.409 4.409 0 01.551.436 1.337 1.337 0 01-1.918-.382z" class="cls-6" transform="translate(-1363.268 -2125.639)"/><path id="패스_44875" d="M1373.939 2139.885c.028-.551.266-.923 1.15-1.166a3.6 3.6 0 01-.046.589 1.423 1.423 0 00-.923.555c-.065.007-.096.01-.181.022z" class="cls-6" transform="translate(-1362.654 -2116.868)"/><path id="패스_44876" d="M1361.6 2148.384a3.685 3.685 0 00.01-.429c-.077.026-.115.038-.208.073a1.442 1.442 0 01.835-.991 5.736 5.736 0 011.2-.33c-.357 1.36-1.002 1.658-1.837 1.677z" class="cls-6" transform="translate(-1352.111 -2123.592)"/><path id="패스_44877" d="M1362.538 2155.392c0-.029.006-.057.009-.084a1.8 1.8 0 001.324-.494 5.5 5.5 0 01.773.3 1.511 1.511 0 01-2.106.278z" class="cls-6" transform="translate(-1353.063 -2130.416)"/><path id="패스_44878" d="M1359.407 2146.083c-.271-.711-.146-1.229.743-1.786a4.133 4.133 0 01.179.658 1.541 1.541 0 00-.838 1.093z" class="cls-6" transform="translate(-1350.323 -2121.564)"/><path id="패스_44879" d="M1350.271 2157.443a1.548 1.548 0 01.659-1.31 4.59 4.59 0 011.206-.625c-.03 1.065-.238 1.865-1.34 2.21a4.473 4.473 0 00-.1-.536 5 5 0 00-.425.261z" class="cls-6" transform="translate(-1342.744 -2131)"/><path id="패스_44880" d="M1353.674 2166.139c0-.075-.01-.15-.018-.219a1.778 1.778 0 001.1-.789 6.263 6.263 0 01.938.151 1.618 1.618 0 01-2.02.857z" class="cls-6" transform="translate(-1345.591 -2139.1)"/><path id="패스_44881" d="M1347.187 2157.214c-.5-.72-.514-1.319.314-2.14a5.137 5.137 0 01.385.687 1.643 1.643 0 00-.612 1.392z" class="cls-6" transform="translate(-1339.858 -2130.634)"/><path id="패스_44882" d="M1342.314 2169.608a1.654 1.654 0 01.391-1.537 5 5 0 011.183-.935c.17.974.245 1.87-.619 2.485a5.438 5.438 0 00-.3-.688 6.259 6.259 0 00-.655.675z" class="cls-6" transform="translate(-1336.011 -2140.785)"/><path id="패스_44883" d="M1348.916 2179.027a4.543 4.543 0 00-.128-.443 1.67 1.67 0 00.7-.886 6.994 6.994 0 011.068-.023c-.419 1.095-1.011 1.325-1.64 1.352z" class="cls-6" transform="translate(-1341.497 -2149.648)"/><path id="패스_44884" d="M1338.12 2171.24a1.6 1.6 0 01-.183-2.415 5.8 5.8 0 01.59.679 1.751 1.751 0 00-.331 1.637c-.025.033-.049.059-.076.099z" class="cls-6" transform="translate(-1331.982 -2142.208)"/><path id="패스_44885" d="M1338.805 2182.568a1.766 1.766 0 01.006-1.693 5.371 5.371 0 011.028-1.3 2.545 2.545 0 01.151 2.65 6.226 6.226 0 00-.619-.768 6.33 6.33 0 00-.566 1.111z" class="cls-6" transform="translate(-1332.918 -2151.257)"/><path id="패스_44886" d="M1348.121 2191.078a4.4 4.4 0 00-.32-.566 1.624 1.624 0 00.36-.937 7.635 7.635 0 011.141-.266 1.846 1.846 0 01-1.181 1.769z" class="cls-6" transform="translate(-1340.666 -2159.449)"/><path id="패스_44887" d="M1333.637 2186.734a1.8 1.8 0 01-.852-2.556 6.9 6.9 0 01.826.6 1.861 1.861 0 00.077 1.8l-.051.156z" class="cls-6" transform="translate(-1327.854 -2155.13)"/><path id="패스_44888" d="M1339.507 2195.822a1.9 1.9 0 01-.38-1.586 5.373 5.373 0 01.683-1.655c.729.835 1.366 1.8.984 2.8a7.212 7.212 0 00-1.146-.742 6.556 6.556 0 00-.141 1.183z" class="cls-6" transform="translate(-1333.339 -2162.2)"/><path id="패스_44889" d="M1350.887 2202.2a4.567 4.567 0 00-.521-.5 1.739 1.739 0 00.1-1.112 7.917 7.917 0 011.127-.582 1.921 1.921 0 01-.706 2.194z" class="cls-6" transform="translate(-1342.824 -2168.458)"/><path id="패스_44890" d="M1331.76 2200.709a7.715 7.715 0 011.07.419 2.01 2.01 0 00.5 1.709c0 .107 0 .214.011.317a2.053 2.053 0 01-1.581-2.445z" class="cls-6" transform="translate(-1327.162 -2169.042)"/><path id="패스_44891" d="M1342.468 2208.523a5.631 5.631 0 01.042-1.94c.9.506 1.944 1.255 2.1 2.214a8.721 8.721 0 00-1.124-.349 6.846 6.846 0 00.414 1.813 2.357 2.357 0 01-1.432-1.738z" class="cls-6" transform="translate(-1336.121 -2173.986)"/><path id="패스_44892" d="M1355.313 2211.243a1.8 1.8 0 00-.325-.834 7.574 7.574 0 01.937-.975 2.229 2.229 0 01.3 2.262 5.966 5.966 0 00-.912-.453z" class="cls-6" transform="translate(-1346.711 -2176.387)"/><path id="패스_44893" d="M1334.2 2218.8a9.051 9.051 0 011.273.082 2.5 2.5 0 001.584 1.806l.043.1a2.445 2.445 0 01-2.9-1.988z" class="cls-6" transform="translate(-1329.225 -2184.272)"/><path id="패스_44894" d="M1351.615 2222.318a2.661 2.661 0 01-1.052-1.085 5.8 5.8 0 01-.563-2.021c2.17.564 3.459 1.5 3.12 3.553a3.98 3.98 0 01-1.505-.447z" class="cls-6" transform="translate(-1342.514 -2184.616)"/><path id="패스_44895" d="M1366.053 2221.183a2.68 2.68 0 00-.826-2.469 7.879 7.879 0 01.668-1.273 3.163 3.163 0 011.087 1.9 3.2 3.2 0 01-.929 1.842z" class="cls-6" transform="translate(-1355.325 -2183.124)"/><path id="패스_44896" d="M1344.6 2232.94a9.66 9.66 0 011.359-.252 3.138 3.138 0 002.468 1.5 2.833 2.833 0 01-3.827-1.248z" class="cls-6" transform="translate(-1337.977 -2195.957)"/><path id="패스_44897" d="M1390.545 2239.52h-.168a.39.39 0 00-.391.388v1.151a.391.391 0 00.391.389h.168a.391.391 0 00.391-.389v-1.151a.391.391 0 00-.391-.388z" class="cls-6" transform="translate(-1376.155 -2201.763)"/><path id="패스_44898" d="M1386.571 2240.368a.4.4 0 01.071-.224.4.4 0 00-.174-.04h-.1a.309.309 0 00-.333.264v1.215a.309.309 0 00.333.264h.1a.391.391 0 00.174-.04.394.394 0 01-.071-.224z" class="cls-6" transform="translate(-1372.832 -2202.254)"/><path id="패스_44899" d="M1396.383 2240.1h-.1a.4.4 0 00-.174.04.4.4 0 01.07.224v1.215a.4.4 0 01-.07.224.391.391 0 00.174.04h.1a.309.309 0 00.334-.264v-1.215a.309.309 0 00-.334-.264z" class="cls-6" transform="translate(-1381.308 -2202.254)"/><path id="패스_44900" d="M1294.513 1968.5h11.708l6.627 15.105h-11.1z" class="cls-2" transform="translate(-1292.979 -1968.428)"/></g></g></svg>