<svg xmlns="http://www.w3.org/2000/svg" width="87" height="55" viewBox="0 0 87 55"><path fill="none" d="M0 0h87v55H0z"/><path fill="#843af2" d="M39.11 31.509q0 11.364-4.8 17.341t-14.46 5.978q-9.519 0-14.685-6.051T0 31.509v-8.265q0-11.216 5.129-17.23T19.629 0q9.445 0 14.463 6.014t5.018 17.23zm-9.519-8.339a26.192 26.192 0 00-.849-7.379 11.253 11.253 0 00-2.214-4.317 6.713 6.713 0 00-3.173-2.029 13.5 13.5 0 00-3.727-.517 13.235 13.235 0 00-3.653.517 7.05 7.05 0 00-3.247 2.066 11.341 11.341 0 00-2.328 4.354 24.846 24.846 0 00-.886 7.305v8.41a24.212 24.212 0 00.922 7.379 11.392 11.392 0 002.4 4.354 7.262 7.262 0 003.324 2.067 13.629 13.629 0 003.69.517 13.11 13.11 0 003.69-.517 6.508 6.508 0 003.1-2.029 11.228 11.228 0 002.14-4.317 27.667 27.667 0 00.812-7.453zm49.736-3.763v15.939h7.232v7.6h-7.233v11.07h-9.3V42.947H43.537v-6.125L67.737.811h10.187L54.68 35.346h15.349V19.407z" opacity=".1"/></svg>