<svg version="1.1" id="Layer_1" xmlns="http://www.w3.org/2000/svg" x="0" y="0" viewBox="161 359.9 917 123" xml:space="preserve"><style>.st5{opacity:.5;fill:#fff}</style><linearGradient id="SVGID_1_" gradientUnits="userSpaceOnUse" x1="219.45" y1="1159.209" x2="219.45" y2="1271.584" gradientTransform="translate(0 -791.89)"><stop offset="0" stop-color="#02fcce"/><stop offset=".77" stop-color="#61caff"/><stop offset="1" stop-color="#61caff"/></linearGradient><path d="M277.2 448.8h-26.1v-41.6h-17.8v-19.5h-17v4.1c0 1.5.2 2.9.5 4.2.4 1.3 1.2 2.5 2.4 3.7 3.5 3.3 7.2 6.3 10.9 9.1s7.7 5.7 11.9 8.8l-13.5 18.3c-5.1-3.5-9.7-6.7-13.8-9.7-4-3-8.1-6.1-12.2-9.4-4.4 3.4-8.9 6.7-13.7 9.9-4.8 3.3-9.8 6.4-15 9.5L161 417.4c4.7-3 8.9-5.8 12.4-8.3 3.6-2.5 7.2-5.4 10.7-8.5 1.5-1.3 2.6-2.7 3.2-4.1s.9-3 .9-4.9v-4h-21.3v-22h70.2v19.1h14.1v-20.4h26.1l-.1 84.5zm.7 33.4H176.6v-43.9h26.1v22h75.2v21.9z" fill="url(#SVGID_1_)"/><linearGradient id="SVGID_2_" gradientUnits="userSpaceOnUse" x1="345.1" y1="1159.209" x2="345.1" y2="1271.584" gradientTransform="translate(0 -791.89)"><stop offset="0" stop-color="#02fcce"/><stop offset=".77" stop-color="#61caff"/><stop offset="1" stop-color="#61caff"/></linearGradient><path d="M397.7 482.9h-26.1v-23.5h-79.1v-20.3h37.7v-10.2h-43.8v-20.3h85.2V385h-79.1v-20.3h105.2v43.9h6.1v20.3H360V439h37.7v43.9z" fill="url(#SVGID_2_)"/><linearGradient id="SVGID_3_" gradientUnits="userSpaceOnUse" x1="500.25" y1="1159.209" x2="500.25" y2="1271.584" gradientTransform="translate(0 -791.89)"><stop offset="0" stop-color="#02fcce"/><stop offset=".77" stop-color="#61caff"/><stop offset="1" stop-color="#61caff"/></linearGradient><path d="M559 436.9H441.5v-19.2h43.8v-12.4h29.8v12.4h43.8l.1 19.2zm-7.7-23.6c-9-2.8-17.6-5.6-25.8-8.4-8.2-2.8-16.6-6.2-25.2-10.2-8.7 3.9-17.1 7.3-25.3 10.2s-16.7 5.7-25.7 8.4l-6.9-18.6c6.8-2.4 13.5-5 20-7.7s13-5.8 19.7-9.1c1.2-.7 2.1-1.6 2.6-2.6s.7-2 .7-3V364h29.8v8.3c0 1 .2 2 .7 3s1.4 1.9 2.6 2.6c6.7 3.4 13.2 6.4 19.7 9.1 6.5 2.7 13.1 5.3 20 7.7l-6.9 18.6zm1.7 69.6h-26.1v-21.8h-79.1v-18.7H553v40.5z" fill="url(#SVGID_3_)"/><linearGradient id="SVGID_4_" gradientUnits="userSpaceOnUse" x1="619.95" y1="1159.209" x2="619.95" y2="1271.584" gradientTransform="translate(0 -791.89)"><stop offset="0" stop-color="#02fcce"/><stop offset=".77" stop-color="#61caff"/><stop offset="1" stop-color="#61caff"/></linearGradient><path d="M636.1 405.4c0 4.3-.7 8.5-2.1 12.6-1.4 4.1-3.6 7.8-6.4 11.2-3.3 3.9-6.8 7.9-10.6 12s-7.7 8.1-11.8 12.1-8.3 7.9-12.5 11.8c-4.3 3.8-8.5 7.5-12.6 11l-16.9-17.5c7.9-6.9 15.3-13.7 22.3-20.4 7-6.8 13.3-13.6 19-20.6 1.8-2.1 3.1-4.5 4.1-7 .9-2.5 1.4-5.4 1.4-8.5v-13.4h-41.8v-22.4h68v39.1h-.1zm40.6 76.8h-26.1V364.3h26.1v117.9z" fill="url(#SVGID_4_)"/><linearGradient id="SVGID_5_" gradientUnits="userSpaceOnUse" x1="743.5" y1="1159.209" x2="743.5" y2="1271.584" gradientTransform="translate(0 -791.89)"><stop offset="0" stop-color="#02fcce"/><stop offset=".77" stop-color="#61caff"/><stop offset="1" stop-color="#61caff"/></linearGradient><path d="M746.3 474.9c-4.6-5.7-8.9-11.6-12.9-17.6-4-6.1-7.6-11.9-10.9-17.6-3.4 5.7-7.1 11.6-11.2 17.8-4.1 6.2-8.4 12.1-12.9 17.8l-19.3-15c5.9-7.8 11-15.7 15.4-23.6 4.4-7.9 8.2-15.5 11.5-22.8 1-2 1.6-4.4 2-7.1.4-2.7.5-5.4.5-7.9v-33.3h28v33.3c0 2.6.2 5.2.5 7.9.4 2.7 1 5.1 2 7.1 3.3 7.3 6.9 14.7 11 22.1 4 7.4 8.9 15.1 14.4 23l-18.1 15.9zm45.6 7.3h-26.1V364.3h26.1v41.1h16v23.9h-16v52.9z" fill="url(#SVGID_5_)"/><path class="st5" d="M275.8 365.8v81.5h-23.2v-41.6h-17.8v-19.5h-20v5.6c0 1.5.2 3 .5 4.5v.2c.5 1.5 1.4 2.9 2.8 4.4 3.2 3 6.7 5.9 11 9.2 2.6 1.9 5.3 3.9 8.1 6 .9.6 1.7 1.3 2.6 1.9l-11.7 15.9c-4-2.8-8.5-5.9-12.6-8.8-3.7-2.8-8-6-12.2-9.4l-.9-.7-.9.7c-4.8 3.7-9.3 7-13.6 9.9-3.9 2.7-8.2 5.4-13.7 8.7l-11.1-16.4c4.3-2.8 8.1-5.3 11.1-7.5 3.4-2.4 7.1-5.3 10.8-8.6 1.7-1.5 2.9-3 3.6-4.6.7-1.6 1-3.4 1-5.5v-5.5h-21.3v-19h67.2v19.1h17.1v-20.4h23.2m-74.6 73.9v22h75.2v18.9h-98.3v-40.9h23.1m76.1-75.5h-26.1v20.4h-14.1v-19.1h-70.2v22h21.3v4c0 1.9-.3 3.5-.9 4.9s-1.7 2.8-3.2 4.1c-3.5 3.1-7.1 6-10.7 8.5-3.5 2.5-7.7 5.3-12.4 8.3l12.8 18.8c5.2-3.1 10.2-6.2 15-9.5 4.8-3.2 9.3-6.5 13.7-9.9 4.1 3.3 8.2 6.4 12.2 9.4 4.1 3 8.7 6.2 13.8 9.7l13.5-18.3c-4.2-3.1-8.2-6-11.9-8.8-3.7-2.8-7.4-5.8-10.9-9.1-1.2-1.2-2-2.4-2.4-3.7-.3-1.3-.5-2.7-.5-4.2v-4.1h17v19.5h17.8v41.6h26.2v-84.5zm-74.6 74h-26.1v43.9h101.3v-21.9h-75.2v-22zm193.5-72.1v43.9h6.1v17.3h-43.8v13.1h37.7v40.9h-23.1v-23.5H294v-17.3h37.7v-13.2h-43.8v-17.3h85.2v-26.6H294v-17.3h102.2m1.5-1.5H292.5V385h79.1v23.6h-85.2v20.3h43.8v10.2h-37.7v20.3h79.1v23.5h26.1V439H360v-10.1h43.8v-20.3h-6.1v-43.9zm116 .8v6.8c0 1.3.3 2.5.9 3.7.6 1.3 1.7 2.4 3.2 3.2 6.7 3.4 13.2 6.4 19.8 9.1 6.9 2.9 12.9 5.2 18.6 7.2l-5.9 15.8c-8.5-2.6-16.7-5.3-24.4-8-8.1-2.8-16.5-6.2-25.1-10.1l-.6-.3-.6.3c-8.9 4-17.1 7.3-25.2 10.2-8.2 2.9-16.1 5.5-24.3 8l-5.9-15.9c6-2.2 12.3-4.6 18.6-7.2 6.9-2.9 13.9-6.2 19.8-9.1 1.5-.8 2.6-2 3.2-3.2.6-1.1.9-2.4.9-3.7v-6.8h27m-.1 41.3v12.4h43.8v16.2H443v-16.2h43.8v-12.4h26.8m37.9 37.1v37.5h-23.1v-21.8h-79.1v-15.7h102.2M515.2 364h-29.8v8.3c0 1-.2 2-.7 3s-1.4 1.9-2.6 2.6c-6.7 3.3-13.2 6.4-19.7 9.1-6.5 2.7-13.2 5.3-20 7.7l6.9 18.6c9-2.7 17.5-5.5 25.7-8.4s16.6-6.3 25.3-10.2c8.6 4 17 7.4 25.2 10.2 8.2 2.8 16.8 5.6 25.8 8.4l6.9-18.6c-6.9-2.4-13.5-5-20-7.7s-13-5.7-19.7-9.1c-1.2-.7-2.1-1.6-2.6-2.6s-.7-2-.7-3V364zm-.1 41.3h-29.8v12.4h-43.8v19.2H559h-.1v-19.2h-43.8v-12.4zm37.9 37.1H447.8v18.7h79.1v21.8H553v-40.5zm122.2-76.6v114.9h-23.1V365.8h23.1m-40.5 2v36.1h-.1v1.5c0 4.1-.7 8.2-2 12.1-1.3 3.8-3.3 7.3-6.1 10.7-3.7 4.3-7.1 8.2-10.6 11.9-3.8 4.1-7.7 8.1-11.7 12-4.1 4-8.4 7.9-12.4 11.7-3.9 3.4-7.7 6.8-11.5 10.1l-14.8-15.4c7.1-6.2 14.2-12.8 21.2-19.4 7.2-7 13.5-13.8 19.1-20.7 1.7-2 3.2-4.5 4.4-7.4 1-2.7 1.5-5.8 1.5-9v-14.8h-42v-19.4h65m42-3.5h-26.1v117.9h26.1V364.3zm-40.5 2h-68v22.4H610v13.4c0 3.1-.5 6-1.4 8.5-1 2.5-2.3 4.9-4.1 7-5.7 7-12 13.8-19 20.6-7 6.7-14.4 13.5-22.3 20.4l16.9 17.5c4.1-3.5 8.3-7.2 12.6-11 4.2-3.9 8.4-7.8 12.5-11.8s8-8 11.8-12.1c3.8-4.1 7.3-8.1 10.6-12 2.8-3.4 5-7.1 6.4-11.2s2.1-8.3 2.1-12.6h.1v-39.1zm154.2-.5v41.1h16v20.9h-16v52.9h-23.1V365.8h23.1m-55.4 1.3v31.8c0 2.4.2 4.9.5 8.1.5 3.2 1.1 5.5 2.1 7.5 3.7 8.2 7.3 15.5 11 22.2 3.6 6.7 8.1 13.9 13.7 22l-15.9 14c-4.1-5.1-8.1-10.6-11.8-16.3-4.1-6.2-7.6-11.9-10.9-17.5l-1.3-2.2-1.3 2.2c-3.5 5.9-7.2 11.7-11.2 17.7-3.7 5.6-7.6 11-11.9 16.5l-17-13.2c5.4-7.2 10.3-14.8 14.6-22.6 4.2-7.6 8.1-15.3 11.5-22.9 1-2 1.7-4.4 2.1-7.5.4-2.4.5-5 .5-8.1V367H735m56.9-2.7h-26.1v117.9h26.1v-52.9h16v-23.9h-16v-41.1zm-55.4 1.3h-28v33.3c0 2.5-.1 5.2-.5 7.9s-1 5.1-2 7.1c-3.3 7.3-7.1 14.9-11.5 22.8s-9.5 15.8-15.4 23.6l19.3 15c4.5-5.7 8.8-11.6 12.9-17.8 4.1-6.2 7.8-12.1 11.2-17.8 3.3 5.7 6.9 11.5 10.9 17.6 4 6 8.3 11.9 12.9 17.6l18.1-15.9c-5.5-7.9-10.4-15.6-14.4-23-4.1-7.4-7.7-14.8-11-22.1-1-2-1.6-4.4-2-7.1-.3-2.7-.5-5.3-.5-7.9v-33.3z"/><linearGradient id="SVGID_6_" gradientUnits="userSpaceOnUse" x1="892.997" y1="364.113" x2="892.997" y2="481.466"><stop offset="0" stop-color="#02fcce"/><stop offset=".77" stop-color="#61caff"/><stop offset="1" stop-color="#61caff"/></linearGradient><path d="M951.7 477.6H834.3v-22.3h14v-37.6h25.4v37.6h10.5v-37.6h25.4v37.6h42v22.3zm-7.5-35h-26.1v-53.2h-76.3v-22.3h102.4v75.5z" fill="url(#SVGID_6_)"/><linearGradient id="SVGID_7_" gradientUnits="userSpaceOnUse" x1="1019.347" y1="364.113" x2="1019.347" y2="481.466"><stop offset="0" stop-color="#02fcce"/><stop offset=".77" stop-color="#61caff"/><stop offset="1" stop-color="#61caff"/></linearGradient><path d="M1071.9 482.5h-26.1v-21.7h-79v-18.6h12.9v-7.4h-19v-18.6H1078v18.6h-19v7.4h12.9v40.3zm-25.4-120c4.3 0 8.1.6 11.6 1.9 3.5 1.2 6.4 2.9 8.8 5.1 2.4 2.1 4.3 4.7 5.7 7.6 1.3 2.9 2 6.1 2 9.6s-.7 6.7-2 9.6-3.2 5.5-5.7 7.6c-2.4 2.1-5.4 3.8-8.8 5.1-3.5 1.2-7.3 1.9-11.6 1.9h-54.3c-4.3 0-8.1-.6-11.6-1.9-3.5-1.2-6.4-2.9-8.8-5.1-2.4-2.1-4.3-4.7-5.7-7.6s-2-6.1-2-9.6.7-6.6 2-9.6c1.3-2.9 3.2-5.5 5.7-7.6 2.4-2.1 5.4-3.8 8.8-5.1 3.5-1.2 7.3-1.9 11.6-1.9h54.3zm-4.7 28.9c1.9 0 3.4-.4 4.7-1.3 1.3-.8 1.9-2 1.9-3.5s-.6-2.7-1.9-3.5c-1.3-.8-2.9-1.3-4.7-1.3h-45c-1.9 0-3.4.4-4.7 1.3-1.3.8-1.9 2-1.9 3.5s.6 2.7 1.9 3.5c1.3.8 2.9 1.3 4.7 1.3h45zm-8.9 50.8v-7.4h-27.1v7.4h27.1z" fill="url(#SVGID_7_)"/><path class="st5" d="M942.7 368.6v72.5h-23.1v-53.2h-76.3v-19.3h99.4m-34.6 50.5v37.6h42V476H835.8v-19.3h14v-37.6h22.4v37.6h13.5v-37.6h22.4m36.1-52H841.8v22.3h76.3v53.2h26.1v-75.5zm-34.6 50.5h-25.4v37.6h-10.5v-37.6h-25.4v37.6h-14v22.3h117.3v-22.3h-42v-37.6zm136.9-53.6c4.1 0 7.8.6 11.1 1.8 3.3 1.2 6.1 2.8 8.4 4.8 2.3 2 4 4.4 5.3 7.1 1.2 2.7 1.9 5.7 1.9 9 0 3.2-.6 6.2-1.9 9-1.2 2.7-3 5.1-5.3 7.1s-5.1 3.6-8.4 4.8c-3.3 1.2-7 1.8-11.1 1.8h-54.3c-4.1 0-7.8-.6-11.1-1.8-3.3-1.2-6.1-2.8-8.4-4.8-2.3-2-4-4.4-5.3-7.1-1.2-2.7-1.9-5.7-1.9-9 0-3.2.6-6.2 1.9-9 1.2-2.7 3-5.1 5.3-7.1s5.1-3.6 8.4-4.8c3.3-1.2 7-1.8 11.1-1.8h54.3m-49.6 28.9h45c2.2 0 4-.5 5.5-1.5 1.7-1.1 2.6-2.8 2.6-4.8s-.9-3.7-2.6-4.8c-1.5-1-3.4-1.5-5.5-1.5h-45c-2.2 0-4 .5-5.5 1.5-1.7 1.1-2.6 2.8-2.6 4.8s.9 3.7 2.6 4.8c1.4 1 3.3 1.5 5.5 1.5m79.6 24.7v15.6h-19v10.4h12.9V481h-23.1v-21.7h-79v-15.6h12.9v-10.4h-19v-15.6h114.3m-72.2 26h30.1v-10.4h-30.1v10.4m42.2-81.2h-54.3c-4.3 0-8.1.6-11.6 1.9-3.5 1.2-6.4 2.9-8.8 5.1-2.4 2.1-4.3 4.7-5.7 7.6-1.3 2.9-2 6.1-2 9.6s.7 6.7 2 9.6 3.2 5.5 5.7 7.6c2.4 2.1 5.4 3.8 8.8 5.1 3.5 1.2 7.3 1.9 11.6 1.9h54.3c4.3 0 8.1-.6 11.6-1.9 3.5-1.2 6.4-2.9 8.8-5.1 2.4-2.1 4.3-4.7 5.7-7.6s2-6.1 2-9.6-.7-6.6-2-9.6c-1.3-2.9-3.2-5.5-5.7-7.6-2.4-2.1-5.4-3.8-8.8-5.1-3.5-1.2-7.4-1.9-11.6-1.9zm-49.6 28.9c-1.9 0-3.4-.4-4.7-1.3-1.3-.8-1.9-2-1.9-3.5s.6-2.7 1.9-3.5c1.3-.8 2.9-1.3 4.7-1.3h45c1.9 0 3.4.4 4.7 1.3 1.3.8 1.9 2 1.9 3.5s-.6 2.7-1.9 3.5c-1.3.8-2.9 1.3-4.7 1.3h-45zm81.1 24.7H960.7v18.6h19v7.4h-12.9v18.6h79v21.7h26.1v-40.3H1059v-7.4h19v-18.6zm-72.2 26.1v-7.4h27.1v7.4h-27.1z"/></svg>