<svg version="1.1" id="Layer_1" xmlns="http://www.w3.org/2000/svg" x="0" y="0" viewBox="445 -37 987 123" xml:space="preserve"><style>.st0{fill:#e3e0f2}.st2{fill:#fff}</style><path class="st0" d="M522-12h-77v-16.3h25.5V-37H497v8.7h25V-12zm-50.9 43.1c-3.5 0-6.8-.5-9.8-1.4s-5.6-2.3-7.8-4c-2.2-1.7-3.9-3.9-5.1-6.3-1.2-2.5-1.8-5.3-1.8-8.4s.6-5.9 1.8-8.4 2.9-4.6 5.1-6.3c2.2-1.7 4.8-3.1 7.8-4s6.3-1.4 9.8-1.4h24.8c3.5 0 6.8.5 9.8 1.4s5.6 2.3 7.8 4 3.9 3.9 5.1 6.3c1.2 2.5 1.8 5.3 1.8 8.4 0 3.1-.6 5.9-1.8 8.4s-2.9 4.6-5.1 6.3-4.8 3.1-7.8 4c-3 .9-6.3 1.4-9.8 1.4h-24.8zm83.8 54.2H454.4V35.8h26.1v7.5h48.3v-7.5h26.1v49.5zM490 14.2c1.3 0 2.4-.3 3.3-.8.8-.6 1.2-1.4 1.2-2.4 0-1.1-.4-1.9-1.3-2.4-.8-.5-1.9-.8-3.3-.8h-13c-1.3 0-2.4.3-3.3.8-.8.5-1.3 1.3-1.3 2.4 0 1.1.4 1.9 1.3 2.4.8.5 1.9.8 3.3.8H490zm38.8 53.5v-8.1h-48.3v8.1h48.3zm26.1-35.8h-26.1v-64.5h26.1v21.8h13v22.4h-13v20.3z"/><path class="st0" d="M682 35.5h-26.1V25.3h-24.4v-8c-2.8 2.4-6.1 4.4-9.7 5.9-7.2 3.1-14.8 6-22.8 8.6-8 2.6-16.1 5.2-24.2 7.7L566.6 20c7.9-2.7 15.6-5.5 23-8.3 7.5-2.9 14.2-5.8 20.2-8.6 1.5-.7 2.6-1.7 3.2-2.9.6-1.2.9-2.7.9-4.3V-9H572v-22.2h68v6.9h15.8v-8.3h26.1l.1 68.1zm0 50.5h-26.1V61.4h-74.4V39.5H682V86zM655.9 5.1v-9.2h-15.8v1.5c0 1.4-.1 2.8-.3 4.1-.2 1.3-.4 2.5-.7 3.7l16.8-.1zm148.4 80.2H696.8V55h80v-3.2h-80V37.7h13.4v-4.3h-19V18.2h117.3v15.2h-19v4.3h13.4v29.8h-80v3.2h81.3l.1 14.6zm-.4-70.2h-107v-30.2h79.3v-3.2h-79.3v-13.9h105.5v29.8h-79.3V.8h80.8v14.3zm-40.5 22.6v-4.3h-27.1v4.3h27.1zM851.6 24c0 3.4-1.1 6.2-3.3 8.4-2.2 2.2-5.1 3.3-8.6 3.3-3.3 0-6-1.1-8.2-3.3-2.2-2.2-3.3-5-3.3-8.4 0-3.5 1.1-6.3 3.4-8.5s5.1-3.3 8.6-3.3c3.3 0 6 1.1 8.2 3.4 2.2 2.4 3.2 5.2 3.2 8.4zm95.1 10.5c-6-2.6-12-5-17.8-7.3-5.8-2.3-11.3-4.7-16.6-7.1-2.7 1.3-5.5 2.5-8.6 3.7-3.1 1.2-6.3 2.5-9.5 3.7-3.2 1.3-6.5 2.5-9.7 3.7s-6.3 2.3-9.1 3.4l-8.6-18.8c5.3-2.3 10.4-4.6 15.1-6.7 4.7-2.2 9.6-4.6 14.4-7.3.7-.4 1.2-.9 1.4-1.3.2-.4.4-1 .5-1.7h-25.8v-22.4h25.8v-9.6h27.9v9.6h25.8v22.4h-25.8c0 .7.1 1.3.4 1.9.3.5.8 1 1.5 1.3 4.8 2.6 9.4 4.9 13.8 6.9s9.1 4.2 14 6.4l-9.1 19.2zm36.6 50.8h-26.1V49.7L945.9 61h-20.5v24.3H898V61h-29V38.6h88.4v-71.2h26.1l-.2 117.9zm121.1-60.4h-26.1V6.3h-14.4c-2.4 5.6-6.4 10.1-12 13.4-5.6 3.3-12.4 4.9-20.2 4.9h-6.7c-5.1 0-9.8-.7-14.1-2.2s-7.9-3.5-10.9-6.2-5.4-5.9-7.1-9.5c-1.7-3.7-2.5-7.8-2.5-12.4 0-4.5.8-8.7 2.5-12.4s4-6.9 7.1-9.5c3-2.7 6.7-4.7 10.9-6.2 4.3-1.5 9-2.2 14.1-2.2h6.7c8.2 0 15.3 1.8 21.2 5.5s9.8 8.7 11.8 14.9h13.6v-17h26.1v57.5zm0 60.4H1004V28.9h26.1v8.8h48.3v-8.8h26v56.4zm-74.1-80.9c2.8 0 5.2-1 7.1-2.9 1.9-1.9 2.9-4.3 2.9-7.3s-1-5.4-2.9-7.3c-1.9-1.9-4.3-2.9-7.1-2.9h-3.7c-2.8 0-5.2 1-7.1 2.9-1.9 1.9-2.9 4.3-2.9 7.3s1 5.4 2.9 7.3c1.9 1.9 4.3 2.9 7.1 2.9h3.7zm48 61.2v-9.5H1030v9.5h48.3zM1228 85.3h-107.5V55h80v-3.2h-80V37.7h13.4v-4.3h-19V18.2h117.4v15.2h-19v4.3h13.4v29.8h-80v3.2h81.3v14.6zm-.4-70.2h-107v-30.2h79.3v-3.2h-79.3v-13.9h105.5v29.8h-79.3V.8h80.8v14.3zm-40.4 22.6v-4.3h-27.1v4.3h27.1zm121.6 41.4h-27.9V-4.1h-12.8v-24h40.7V79.1zm123.1 6.2h-26.1v-41l-11.3 11.4h-21.8v29.6h-27.4V55.7h-27.8V33.3h88.4v-65.9h26.1l-.1 117.9zm-81.3-58.4c-4.8 0-9.1-.8-12.9-2.3-3.8-1.6-7.1-3.7-9.7-6.4-2.7-2.7-4.7-5.9-6.2-9.6-1.5-3.7-2.2-7.7-2.2-12s.7-8.3 2.2-12c1.5-3.7 3.5-6.9 6.2-9.6s5.9-4.9 9.7-6.4c3.8-1.6 8.1-2.3 12.9-2.3h17.6c4.8 0 9.1.8 12.9 2.3 3.8 1.6 7.1 3.7 9.7 6.4 2.7 2.7 4.7 5.9 6.2 9.6s2.2 7.7 2.2 12-.7 8.3-2.1 12c-1.4 3.7-3.4 6.9-6 9.6-2.6 2.7-5.8 4.9-9.5 6.4-3.7 1.6-8 2.3-12.8 2.3h-18.2zm14.8-22.5c2.5 0 4.4-.8 5.7-2.4 1.3-1.6 2-3.4 2-5.5 0-2-.7-3.9-2-5.5s-3.2-2.4-5.7-2.4h-12c-2.5 0-4.4.8-5.7 2.4s-2 3.4-2 5.5c0 2 .7 3.9 2 5.5s3.2 2.4 5.7 2.4h12z"/><g opacity=".5"><path class="st2" d="M495.5-35.5v8.7h25v13.3h-74v-13.3H472v-8.7h23.5m57.9 4.4v21.8h13v19.4h-13v20.3h-23.1v-61.5h23.1M495.9-7.6c3.3 0 6.4.4 9.4 1.3 2.7.8 5.1 2.1 7.3 3.8 1.9 1.5 3.5 3.5 4.7 5.8 1.1 2.3 1.7 4.9 1.7 7.8 0 2.9-.6 5.5-1.7 7.8s-2.7 4.2-4.7 5.8c-2.2 1.7-4.6 2.9-7.3 3.8-3 .9-6.1 1.3-9.4 1.3h-24.8c-3.3 0-6.4-.4-9.4-1.3-2.7-.8-5.1-2.1-7.3-3.8-1.9-1.5-3.5-3.5-4.7-5.8-1.1-2.3-1.7-4.9-1.7-7.8 0-2.9.6-5.5 1.7-7.8s2.7-4.2 4.7-5.8c2.2-1.7 4.6-2.9 7.3-3.8 3-.9 6.1-1.3 9.4-1.3h24.8m-23.1 22.3c1.1.7 2.5 1 4.1 1H490c1.5 0 2.8-.3 4-1h.1l.1-.1c1.2-.9 1.8-2.1 1.8-3.6 0-2.1-1.1-3.2-2-3.7-1.1-.7-2.5-1-4.1-1h-13c-1.5 0-2.8.3-4 1-1.3.8-2 2.1-2 3.7-.1 2.1 1 3.2 1.9 3.7m80.6 22.6v46.5h-97.5V37.3H479v7.5h51.3v-7.5h23.1M479 69.2h51.3V58.1H479v11.1M497-37h-26.5v8.7H445V-12h77v-16.3h-25V-37zm57.9 4.4h-26.1v64.5h26.1V11.6h13v-22.4h-13v-21.8zm-59 23.5h-24.8c-3.5 0-6.8.5-9.8 1.4-3 .9-5.6 2.3-7.8 4-2.2 1.7-3.9 3.8-5.1 6.3-1.2 2.5-1.8 5.3-1.8 8.4s.6 5.9 1.8 8.4c1.2 2.4 2.9 4.6 5.1 6.3s4.8 3.1 7.8 4c3 .9 6.3 1.4 9.8 1.4h24.8c3.5 0 6.8-.5 9.8-1.4 3-.9 5.6-2.3 7.8-4s3.9-3.8 5.1-6.3c1.2-2.5 1.8-5.3 1.8-8.4s-.6-5.9-1.8-8.4c-1.2-2.4-2.9-4.6-5.1-6.3-2.2-1.7-4.8-3.1-7.8-4s-6.3-1.4-9.8-1.4zm-19 23.3c-1.4 0-2.5-.3-3.3-.8-.9-.5-1.3-1.3-1.3-2.4s.5-1.9 1.3-2.4c.9-.5 2-.8 3.3-.8h13c1.4 0 2.5.3 3.3.8.9.5 1.3 1.3 1.3 2.4 0 1-.4 1.8-1.2 2.4-.9.5-2 .8-3.3.8h-13.1zm78 21.6h-26.1v7.5h-48.3v-7.5h-26.1v49.5h100.5V35.8zm-74.4 31.9v-8.1h48.3v8.1h-48.3z"/><path class="st2" d="M680.4-31.1V34h-23V23.8H633V14l-2.5 2.1c-2.7 2.3-5.8 4.2-9.3 5.7-7.4 3.2-15.1 6.1-22.7 8.6-9.1 3-16.3 5.2-22.9 7.3l-7.1-16.8c6.9-2.4 14-4.9 21.5-7.8 7-2.7 13.6-5.5 20.3-8.6 1.8-.8 3.2-2.1 3.9-3.6.7-1.4 1.1-3.1 1.1-5v-6.4h-41.9v-19.2h65v6.9h18.8v-8.3h23.2M637.2 6.7h20.2V-5.6h-18.8v3c0 1.3-.1 2.7-.3 3.9-.2 1.1-.4 2.4-.7 3.6l-.4 1.8M680.5 41v43.5h-23.1V59.9H583V41h97.5m1.4-73.6h-26.1v8.3H640v-6.9h-68V-9h41.9v4.9c0 1.6-.3 3.1-.9 4.3-.6 1.2-1.7 2.2-3.2 2.9-6 2.8-12.7 5.7-20.2 8.6-7.4 2.8-15.1 5.6-23 8.3l8.2 19.5c8.1-2.5 16.2-5.1 24.2-7.7 8-2.6 15.6-5.5 22.8-8.6 3.6-1.5 6.9-3.5 9.7-5.9v8h24.4v10.2H682h-.1v-68.1zM639.1 5.2c.3-1.2.5-2.4.7-3.7s.3-2.7.3-4.1v-1.5h15.8v9.3h-16.8zM682 39.5H581.5v21.9h74.4V86H682V39.5zm118.9-70.2v26.8h-79.3v6.2h80.8v11.3h-104v-27.2h79.3v-6.2h-79.3v-10.9h102.5m6.1 50.4v12.2h-19v7.3h13.4V66h-80v6.2h81.3v11.6H698.3V56.5h80v-6.2h-80V39.2h13.4v-7.3h-19V19.7H807m-72.2 19.5h30.1v-7.3h-30.1v7.3m67.6-71.4H696.9v13.9h79.3v3.2h-79.3v30.2h107V.8h-80.8v-3.2h79.3v-29.8zm6.1 50.4H691.2v15.2h19v4.3h-13.4v14.1h80V55h-80v30.3h107.5-.1V70.7h-81.3v-3.2h80V37.7h-13.4v-4.3h19V18.2zm-72.2 19.5v-4.3h27.1v4.3h-27.1zm103.9-24c2.9 0 5.2 1 7.1 2.9 1.9 2.1 2.8 4.5 2.8 7.4 0 3-.9 5.4-2.9 7.3-1.9 1.9-4.4 2.9-7.5 2.9-2.9 0-5.2-.9-7.1-2.9-1.9-1.9-2.9-4.3-2.9-7.3 0-3.1 1-5.5 2.9-7.4 2-2 4.5-2.9 7.6-2.9m0-1.5c-3.5 0-6.3 1.1-8.6 3.3-2.3 2.2-3.4 5-3.4 8.5 0 3.4 1.1 6.2 3.3 8.4 2.2 2.2 4.9 3.3 8.2 3.3 3.5 0 6.4-1.1 8.6-3.3 2.2-2.2 3.3-5 3.3-8.4 0-3.2-1-6-3.2-8.4-2.2-2.3-4.9-3.4-8.2-3.4zm84.5-43.9v9.6h25.8v19.4h-25.8v1.5c0 1 .2 1.8.6 2.6v.1c.5.8 1.2 1.5 2.1 1.9 4.8 2.6 9.4 4.9 13.8 6.9 1.8.8 3.6 1.6 5.4 2.5 2.3 1.1 4.7 2.2 7.2 3.3L946 32.5c-5.6-2.4-11.2-4.6-16.5-6.7-5-2-10.3-4.2-16.5-7.1l-.6-.3-.6.3c-2.6 1.3-5.4 2.5-8.5 3.7-1.2.5-2.4.9-3.6 1.4-1.9.8-4 1.6-6 2.3-2.5 1-5.1 2-7.6 2.9l-2.1.8c-1.2.4-2.3.9-3.4 1.3-1.5.6-3 1.1-4.4 1.6l-7.4-16.1c3.8-1.7 7.5-3.3 11-4.9l2.7-1.2c5.9-2.8 10.4-5 14.5-7.4.9-.5 1.6-1.2 2-1.9.3-.6.5-1.4.6-2.2l.2-1.7H874v-19.4h25.8v-9.6h24.9m57.2.6V83.8h-23.2V46.1l-2.6 2.6-10.9 10.9H924v24.2h-24.4V59.5h-29.1V40.1h88.4v-71.2h23m-55.7-2.1h-27.9v9.6h-25.8v22.4h25.8c-.1.7-.3 1.3-.5 1.7-.2.4-.7.9-1.4 1.3-4.8 2.7-9.7 5.1-14.4 7.3-4.7 2.1-9.8 4.4-15.1 6.7l8.6 18.8c2.8-1.1 5.9-2.2 9.1-3.4 3.2-1.2 6.5-2.4 9.7-3.7 3.2-1.2 6.4-2.5 9.5-3.7s5.9-2.4 8.6-3.7c5.3 2.4 10.8 4.8 16.6 7.1 5.8 2.3 11.8 4.7 17.8 7.3l9.1-19.2c-4.9-2.2-9.6-4.4-14-6.4s-9-4.3-13.8-6.9c-.7-.3-1.2-.8-1.5-1.3-.3-.6-.4-1.2-.4-1.9H952v-22.4h-25.8v-9.6zm57.2.6h-26.1v71.2H869V61h29.1v24.3h27.4V61H946l11.3-11.3v35.6h26.2V-32.6h-.1zm48.3-1.9c8 0 14.8 1.8 20.4 5.3 5.5 3.5 9.3 8.2 11.2 14.1l.3 1h16.2v-17h23.1v54.5h-23.1V4.8h-16.9l-.4.9c-2.3 5.3-6.1 9.6-11.4 12.7-5.3 3.1-11.8 4.7-19.4 4.7h-6.7c-5.1 0-9.5-.7-13.6-2.1-4.2-1.5-7.6-3.4-10.4-5.9-2.9-2.6-5.1-5.6-6.7-9-1.6-3.5-2.4-7.3-2.4-11.8 0-4.4.8-8.4 2.4-11.8 1.7-3.7 3.9-6.6 6.7-9 2.7-2.4 6.1-4.4 10.4-5.9 4.1-1.4 8.5-2.1 13.6-2.1h6.7m-5.1 40.4h3.7c3.2 0 6-1.2 8.2-3.3 2.2-2.2 3.3-5 3.3-8.4 0-3.3-1.1-6.1-3.3-8.4-2.2-2.2-5-3.3-8.2-3.3h-3.7c-3.2 0-6 1.2-8.2 3.3-2.2 2.2-3.3 5-3.3 8.4 0 3.3 1.1 6.1 3.3 8.4 2.3 2.1 5.1 3.3 8.2 3.3m76.3 24.5v53.4h-97.4V30.4h23.1v8.8h51.3v-8.8h23m-74.4 36.7h51.3V54.6h-51.3v12.5m3.2-103.1h-6.7c-5.1 0-9.8.7-14.1 2.2-4.2 1.5-7.9 3.5-10.9 6.2-3.1 2.6-5.4 5.8-7.1 9.5s-2.5 7.9-2.5 12.4c0 4.6.8 8.7 2.5 12.4 1.7 3.6 4.1 6.8 7.1 9.5s6.6 4.7 10.9 6.2 9 2.2 14.1 2.2h6.7c7.8 0 14.6-1.6 20.2-4.9 5.6-3.3 9.6-7.8 12-13.4h14.4v18.6h26.1v-57.5h-26.1v17h-13.6c-2-6.2-5.9-11.2-11.8-14.9-5.9-3.7-13-5.5-21.2-5.5zm-5.1 40.4c-2.8 0-5.2-1-7.1-2.9s-2.9-4.3-2.9-7.3 1-5.4 2.9-7.3c1.9-1.9 4.3-2.9 7.1-2.9h3.7c2.8 0 5.2 1 7.1 2.9s2.9 4.3 2.9 7.3-1 5.4-2.9 7.3c-1.9 1.9-4.3 2.9-7.1 2.9h-3.7zm77.8 24.5h-26v8.8h-48.3v-8.8H1004v56.4h100.4V28.9zM1030 65.6v-9.5h48.3v9.5H1030zm194.6-96.3v26.8h-79.3v6.2h80.8v11.3h-104v-27.2h79.3v-6.2h-79.3v-10.9h102.5m6.2 50.4v12.2h-19v7.3h13.4V66h-80v6.2h81.3v11.6H1122V56.5h80v-6.2h-80V39.2h13.4v-7.3h-19V19.7h114.4m-72.2 19.5h30.1v-7.3h-30.1v7.3m67.5-71.4h-105.5v13.9h79.3v3.2h-79.3v30.2h107V.8h-80.8v-3.2h79.3v-29.8zm6.2 50.4h-117.4v15.2h19v4.3h-13.4v14.1h80V55h-80v30.3H1228V70.7h-81.3v-3.2h80V37.7h-13.4v-4.3h19V18.2zm-72.2 19.5v-4.3h27.1v4.3h-27.1zm147.2-64.3V77.6h-24.9V-5.6h-12.8v-21h37.7m1.5-1.5h-40.7v24h12.8v83.2h27.9V-28.1zm59.4-4.1c4.5 0 8.7.7 12.3 2.2 3.8 1.6 6.9 3.6 9.2 6.1 2.5 2.5 4.4 5.4 5.9 9.1 1.4 3.5 2.1 7.2 2.1 11.4 0 4.1-.7 8-2 11.5s-3.2 6.6-5.7 9.1c-2.5 2.6-5.5 4.7-9 6.1-3.4 1.5-7.4 2.2-12.2 2.2h-18.2c-4.5 0-8.7-.7-12.3-2.2-3.8-1.6-6.9-3.6-9.2-6.1-2.5-2.5-4.4-5.4-5.9-9.1-1.4-3.5-2.1-7.2-2.1-11.4s.7-8 2.1-11.4c1.5-3.7 3.4-6.6 5.9-9.1 2.7-2.7 5.8-4.7 9.2-6.1 3.5-1.5 7.5-2.2 12.3-2.2h17.6m-14.8 38h12c3 0 5.3-1 6.9-3 1.5-1.9 2.3-4.1 2.3-6.4 0-2.3-.8-4.6-2.3-6.4-1.6-2-3.9-3-6.9-3h-12c-3 0-5.3 1-6.9 3-1.5 1.9-2.3 4.1-2.3 6.4 0 2.3.8 4.6 2.3 6.4 1.6 2 3.9 3 6.9 3m77.1-37V83.8h-23.2V40.7l-2.6 2.6-10.9 11h-22.7v29.6h-24.4V54.2H1319V34.8h88.4v-65.9h23.1m-62.3-2.6h-17.6c-4.8 0-9.1.7-12.9 2.3-3.8 1.5-7 3.7-9.7 6.4s-4.7 5.9-6.2 9.6c-1.5 3.7-2.2 7.7-2.2 12s.7 8.3 2.2 12c1.5 3.7 3.5 6.9 6.2 9.6 2.6 2.7 5.9 4.8 9.7 6.4 3.8 1.5 8.1 2.3 12.9 2.3h18.2c4.8 0 9.1-.7 12.8-2.3 3.7-1.5 6.9-3.7 9.5-6.4 2.6-2.7 4.6-5.9 6-9.6 1.4-3.7 2.1-7.7 2.1-12s-.7-8.3-2.2-12c-1.5-3.7-3.5-6.9-6.2-9.6-2.6-2.7-5.9-4.8-9.7-6.4-3.8-1.5-8.1-2.3-12.9-2.3zm-14.8 38.1c-2.5 0-4.4-.8-5.7-2.4s-2-3.5-2-5.5c0-2.1.7-3.9 2-5.5s3.2-2.4 5.7-2.4h12c2.5 0 4.4.8 5.7 2.4 1.3 1.6 2 3.5 2 5.5 0 2.1-.7 3.9-2 5.5s-3.2 2.4-5.7 2.4h-12zm78.6-37h-26.1v65.9h-88.4v22.4h27.8v29.6h27.4V55.7h21.8l11.3-11.4v41h26.2V-32.6z"/></g></svg>