<svg xmlns="http://www.w3.org/2000/svg" width="87" height="55" viewBox="0 0 87 55"><path fill="none" d="M0 0h87v55H0z"/><path fill="#843af2" d="M39.11 31.509q0 11.364-4.8 17.341t-14.46 5.978q-9.519 0-14.685-6.051T0 31.509v-8.265q0-11.216 5.129-17.23T19.629 0q9.445 0 14.463 6.014t5.018 17.23zm-9.519-8.339a26.192 26.192 0 00-.849-7.379 11.253 11.253 0 00-2.214-4.317 6.713 6.713 0 00-3.173-2.029 13.5 13.5 0 00-3.727-.517 13.235 13.235 0 00-3.653.517 7.05 7.05 0 00-3.247 2.066 11.341 11.341 0 00-2.328 4.354 24.846 24.846 0 00-.886 7.305v8.41a24.212 24.212 0 00.922 7.379 11.392 11.392 0 002.4 4.354 7.262 7.262 0 003.324 2.067 13.629 13.629 0 003.69.517 13.11 13.11 0 003.69-.517 6.508 6.508 0 003.1-2.029 11.228 11.228 0 002.14-4.317 27.667 27.667 0 00.812-7.453zm17.71-15.5a21.1 21.1 0 016.346-5.571 18.909 18.909 0 019.445-2.1 22.409 22.409 0 016.789.959 15.593 15.593 0 015.165 2.693 12.017 12.017 0 013.321 4.206 12.421 12.421 0 011.181 5.423v.738a18.663 18.663 0 01-.332 3.358A11.9 11.9 0 0178 20.846a12.033 12.033 0 01-2.361 3.062 11.319 11.319 0 01-3.763 2.288q5.313.959 7.822 4.206a12.411 12.411 0 012.502 7.822v1.107a14.877 14.877 0 01-1.181 5.83 13.709 13.709 0 01-3.579 4.944 17.958 17.958 0 01-6.051 3.431 25.559 25.559 0 01-8.523 1.291 28.165 28.165 0 01-8.966-1.439 25.927 25.927 0 01-8.08-4.464l4.649-7.379q1.919 1.4 3.505 2.361a18.535 18.535 0 003.062 1.513 14.76 14.76 0 002.878.775 19.427 19.427 0 003.025.221q5.018 0 7.379-1.992a6.849 6.849 0 002.361-5.534v-.959q0-3.911-2.288-5.719t-7.379-1.808h-7.151v-8.117h6.346a12.662 12.662 0 004.1-.553 5.767 5.767 0 002.472-1.55 5.431 5.431 0 001.218-2.435 13.941 13.941 0 00.332-3.136v-.59a4.977 4.977 0 00-1.955-4.391 9.066 9.066 0 00-5.276-1.365 10.639 10.639 0 00-5.5 1.254 17.4 17.4 0 00-3.874 3.173z" opacity=".1"/></svg>