<svg xmlns="http://www.w3.org/2000/svg" width="87" height="55" viewBox="0 0 87 55"><path fill="none" d="M0 0h87v55H0z"/><path fill="#843af2" d="M39.11 31.509q0 11.364-4.8 17.341t-14.46 5.978q-9.519 0-14.685-6.051T0 31.509v-8.265q0-11.216 5.129-17.23T19.629 0q9.445 0 14.463 6.014t5.018 17.23zm-9.519-8.339a26.192 26.192 0 00-.849-7.379 11.253 11.253 0 00-2.214-4.317 6.713 6.713 0 00-3.173-2.029 13.5 13.5 0 00-3.727-.517 13.235 13.235 0 00-3.653.517 7.05 7.05 0 00-3.247 2.066 11.341 11.341 0 00-2.328 4.354 24.846 24.846 0 00-.886 7.305v8.41a24.212 24.212 0 00.922 7.379 11.392 11.392 0 002.4 4.354 7.262 7.262 0 003.324 2.067 13.629 13.629 0 003.69.517 13.11 13.11 0 003.69-.517 6.508 6.508 0 003.1-2.029 11.228 11.228 0 002.14-4.317 27.667 27.667 0 00.812-7.453zm36.158 3.616a44.852 44.852 0 003.616-4.132 19.06 19.06 0 001.992-3.174 8.609 8.609 0 00.812-2.583 18.446 18.446 0 00.148-2.288v-.59a5.363 5.363 0 00-1.734-3.874q-1.734-1.734-5.866-1.734a14.468 14.468 0 00-2.915.3 9.452 9.452 0 00-2.841 1.107 12.07 12.07 0 00-2.767 2.288 21.278 21.278 0 00-2.694 3.759l-7.084-4.649a40.024 40.024 0 012.4-3.69 17.506 17.506 0 013.616-3.653 19.789 19.789 0 015.165-2.767 20.282 20.282 0 017.047-1.107 24.1 24.1 0 017.748 1.107 15.329 15.329 0 015.35 2.989 11.632 11.632 0 013.1 4.354 13.788 13.788 0 011 5.2v.738a18.467 18.467 0 01-1.955 8.3 29.63 29.63 0 01-5.719 7.711L58.517 46.194h25.311v7.822H46.194v-7.084z" opacity=".1"/></svg>