<?xml version="1.0" encoding="utf-8"?>
<!-- Generator: Adobe Illustrator 25.4.1, SVG Export Plug-In . SVG Version: 6.00 Build 0)  -->
<svg width="895px" version="1.1" id="Layer_1" xmlns="http://www.w3.org/2000/svg" xmlns:xlink="http://www.w3.org/1999/xlink" x="0px" y="0px"
	 viewBox="0 0 917 123" style="enable-background:new 0 0 917 123;" xml:space="preserve">
<style type="text/css">
	.st0{fill:url(#SVGID_1_);}
	.st1{fill:url(#SVGID_00000024686588489695967020000004321394056388905140_);}
	.st2{fill:url(#SVGID_00000094590676504270635310000001001844967217245593_);}
	.st3{fill:url(#SVGID_00000005975122508277138280000008923305080615698055_);}
	.st4{fill:url(#SVGID_00000059287233159332980150000008870641665487336353_);}
	.st5{opacity:0.5;fill:#FFFFFF;enable-background:new    ;}
	.st6{fill:url(#SVGID_00000087395507932230866250000005824559771235972516_);}
	.st7{fill:url(#SVGID_00000118395336251503335560000008717850693748678840_);}
</style>
<linearGradient id="SVGID_1_" gradientUnits="userSpaceOnUse" x1="59.7791" y1="-675.493" x2="59.7791" y2="-787.4946" gradientTransform="matrix(1 0 0 -1 0 -667.89)">
	<stop  offset="0" style="stop-color:#02FCCE"/>
	<stop  offset="0.77" style="stop-color:#61CAFF"/>
	<stop  offset="1" style="stop-color:#61CAFF"/>
</linearGradient>
<path class="st0" d="M117.3,88.8h-26V47.4H73.6V27.9H56.6V32c0,1.5,0.2,2.9,0.5,4.2c0.4,1.3,1.2,2.5,2.4,3.7
	c3.5,3.3,7.2,6.3,10.9,9.1c3.7,2.8,7.7,5.7,11.9,8.8L68.8,76c-5.1-3.5-9.7-6.7-13.8-9.7c-4-3-8.1-6.1-12.2-9.4
	c-4.4,3.4-8.9,6.7-13.7,9.9c-4.8,3.3-9.8,6.4-15,9.5L1.5,57.5c4.7-3,8.9-5.8,12.4-8.3c3.6-2.5,7.2-5.4,10.7-8.5
	c1.5-1.3,2.6-2.7,3.2-4.1c0.6-1.4,0.9-3,0.9-4.9v-4H7.4V5.9h70v19h14.1V4.6h26L117.3,88.8L117.3,88.8z M118,122.1h-101V78.3h26v21.9
	h75V122.1z"/>
<linearGradient id="SVGID_00000147927288308951055400000003552218328974369446_" gradientUnits="userSpaceOnUse" x1="185.0116" y1="-675.493" x2="185.0116" y2="-787.4946" gradientTransform="matrix(1 0 0 -1 0 -667.89)">
	<stop  offset="0" style="stop-color:#02FCCE"/>
	<stop  offset="0.77" style="stop-color:#61CAFF"/>
	<stop  offset="1" style="stop-color:#61CAFF"/>
</linearGradient>
<path style="fill:url(#SVGID_00000147927288308951055400000003552218328974369446_);" d="M237.4,122.8h-26V99.4h-78.8V79.1h37.6V69
	h-43.7V48.7h84.9V25.2h-78.8V5h104.9v43.8h6.1V69h-43.7V79h37.6V122.8z"/>
<linearGradient id="SVGID_00000026856864165587689340000007838916425989469341_" gradientUnits="userSpaceOnUse" x1="339.6462" y1="-675.493" x2="339.6462" y2="-787.4946" gradientTransform="matrix(1 0 0 -1 0 -667.89)">
	<stop  offset="0" style="stop-color:#02FCCE"/>
	<stop  offset="0.77" style="stop-color:#61CAFF"/>
	<stop  offset="1" style="stop-color:#61CAFF"/>
</linearGradient>
<path style="fill:url(#SVGID_00000026856864165587689340000007838916425989469341_);" d="M398.2,77H281.1V57.8h43.7V45.5h29.7v12.4
	h43.7L398.2,77L398.2,77z M390.5,53.4c-9-2.8-17.5-5.6-25.7-8.4c-8.2-2.8-16.5-6.2-25.1-10.2c-8.7,3.9-17,7.3-25.2,10.2
	c-8.2,2.9-16.6,5.7-25.6,8.4L282,34.9c6.8-2.4,13.5-5,19.9-7.7c6.5-2.7,13-5.8,19.6-9.1c1.2-0.7,2.1-1.6,2.6-2.6c0.5-1,0.7-2,0.7-3
	V4.3h29.7v8.3c0,1,0.2,2,0.7,3c0.5,1,1.4,1.9,2.6,2.6c6.7,3.4,13.2,6.4,19.6,9.1c6.5,2.7,13.1,5.3,19.9,7.7L390.5,53.4L390.5,53.4z
	 M392.2,122.8h-26v-21.7h-78.8V82.4h104.9V122.8z"/>
<linearGradient id="SVGID_00000057845356158300144710000016457861210484191929_" gradientUnits="userSpaceOnUse" x1="458.9485" y1="-675.493" x2="458.9485" y2="-787.4946" gradientTransform="matrix(1 0 0 -1 0 -667.89)">
	<stop  offset="0" style="stop-color:#02FCCE"/>
	<stop  offset="0.77" style="stop-color:#61CAFF"/>
	<stop  offset="1" style="stop-color:#61CAFF"/>
</linearGradient>
<path style="fill:url(#SVGID_00000057845356158300144710000016457861210484191929_);" d="M475,45.6c0,4.3-0.7,8.5-2.1,12.6
	c-1.4,4.1-3.6,7.8-6.4,11.2c-3.3,3.9-6.8,7.9-10.6,12c-3.8,4.1-7.7,8.1-11.8,12.1c-4.1,4-8.3,7.9-12.5,11.8
	c-4.3,3.8-8.5,7.5-12.6,11l-16.8-17.4c7.9-6.9,15.2-13.7,22.2-20.3c7-6.8,13.3-13.6,18.9-20.5c1.8-2.1,3.1-4.5,4.1-7
	c0.9-2.5,1.4-5.4,1.4-8.5V28.9h-41.7V6.6h67.8L475,45.6L475,45.6L475,45.6z M515.5,122.1h-26V4.6h26V122.1L515.5,122.1z"/>
<linearGradient id="SVGID_00000057112017297969201560000017399530703895978908_" gradientUnits="userSpaceOnUse" x1="582.088" y1="-675.493" x2="582.088" y2="-787.4946" gradientTransform="matrix(1 0 0 -1 0 -667.89)">
	<stop  offset="0" style="stop-color:#02FCCE"/>
	<stop  offset="0.77" style="stop-color:#61CAFF"/>
	<stop  offset="1" style="stop-color:#61CAFF"/>
</linearGradient>
<path style="fill:url(#SVGID_00000057112017297969201560000017399530703895978908_);" d="M584.9,114.8c-4.6-5.7-8.9-11.6-12.9-17.5
	c-4-6.1-7.6-11.9-10.9-17.5c-3.4,5.7-7.1,11.6-11.2,17.7c-4.1,6.2-8.4,12.1-12.9,17.7l-19.2-15c5.9-7.8,11-15.6,15.3-23.5
	c4.4-7.9,8.2-15.4,11.5-22.7c1-2,1.6-4.4,2-7.1c0.4-2.7,0.5-5.4,0.5-7.9V5.9h27.9v33.2c0,2.6,0.2,5.2,0.5,7.9c0.4,2.7,1,5.1,2,7.1
	c3.3,7.3,6.9,14.7,11,22c4,7.4,8.9,15,14.4,22.9L584.9,114.8L584.9,114.8z M630.3,122.1h-26V4.6h26v41h15.9v23.8h-15.9V122.1z"/>
<path class="st5" d="M115.9,6.1v81.2H92.8V45.9H75.1V26.4H55.1V32c0,1.5,0.2,3,0.5,4.5v0.2c0.5,1.5,1.4,2.9,2.8,4.4
	c3.2,3,6.7,5.9,11,9.2c2.6,1.9,5.3,3.9,8.1,6c0.9,0.6,1.7,1.3,2.6,1.9L68.4,74c-4-2.8-8.5-5.9-12.6-8.8c-3.7-2.8-8-6-12.2-9.4
	l-0.9-0.7l-0.9,0.7c-4.8,3.7-9.3,7-13.6,9.9c-3.9,2.7-8.2,5.4-13.7,8.7L3.6,58c4.3-2.8,8.1-5.3,11.1-7.5c3.4-2.4,7.1-5.3,10.8-8.6
	c1.7-1.5,2.9-3,3.6-4.6c0.7-1.6,1-3.4,1-5.5v-5.5H8.8V7.5h67v19h17V6.2L115.9,6.1 M41.6,79.8v21.9h75v18.8h-98V79.8H41.6 M117.4,4.6
	h-26v20.3H77.4v-19h-70v21.9h21.2v4c0,1.9-0.3,3.5-0.9,4.9c-0.6,1.4-1.7,2.8-3.2,4.1c-3.5,3.1-7.1,6-10.7,8.5
	c-3.5,2.5-7.7,5.3-12.4,8.3l12.8,18.7c5.2-3.1,10.2-6.2,15-9.5c4.8-3.2,9.3-6.5,13.7-9.9c4.1,3.3,8.2,6.4,12.2,9.4
	c4.1,3,8.7,6.2,13.8,9.7l13.5-18.2c-4.2-3.1-8.2-6-11.9-8.8c-3.7-2.8-7.4-5.8-10.9-9.1c-1.2-1.2-2-2.4-2.4-3.7
	c-0.3-1.3-0.5-2.7-0.5-4.2v-4.1h16.9v19.4h17.7v41.5h26.1L117.4,4.6L117.4,4.6z M43.1,78.3h-26v43.8h101v-21.8h-75L43.1,78.3
	L43.1,78.3z M235.9,6.5v43.8h6.1v17.2h-43.7v13.1h37.6v40.8h-23V97.9h-78.8V80.6h37.6V67.5H128V50.2h84.9V23.7h-78.8V6.5H235.9
	 M237.4,5H132.6v20.2h78.8v23.5h-84.9V69h43.7v10.2h-37.6v20.2h78.8v23.4h26V79h-37.6V69h43.7V48.7h-6.1L237.4,5L237.4,5z
	 M353.1,5.8v6.8c0,1.3,0.3,2.5,0.9,3.7c0.6,1.3,1.7,2.4,3.2,3.2c6.7,3.4,13.2,6.4,19.7,9.1c6.9,2.9,12.9,5.2,18.5,7.2l-5.9,15.7
	c-8.5-2.6-16.6-5.3-24.3-8c-8.1-2.8-16.4-6.2-25-10.1l-0.6-0.3l-0.6,0.3c-8.9,4-17,7.3-25.1,10.2c-8.2,2.9-16,5.5-24.2,8l-5.9-15.8
	c6-2.2,12.3-4.6,18.5-7.2c6.9-2.9,13.9-6.2,19.7-9.1c1.5-0.8,2.6-2,3.2-3.2c0.6-1.1,0.9-2.4,0.9-3.7V5.8H353.1 M353,47v12.4h43.7
	v16.1h-114V59.3h43.7V47H353 M390.7,83.9v37.4h-23V99.6h-78.8V83.9H390.7 M354.5,4.3h-29.7v8.3c0,1-0.2,2-0.7,3
	c-0.5,1-1.4,1.9-2.6,2.6c-6.7,3.3-13.2,6.4-19.6,9.1c-6.5,2.7-13.2,5.3-19.9,7.7l6.9,18.5c9-2.7,17.4-5.5,25.6-8.4
	c8.2-2.9,16.5-6.3,25.2-10.2c8.6,4,16.9,7.4,25.1,10.2c8.2,2.8,16.7,5.6,25.7,8.4l6.9-18.5c-6.9-2.4-13.5-5-19.9-7.7
	c-6.5-2.7-13-5.7-19.6-9.1c-1.2-0.7-2.1-1.6-2.6-2.6c-0.5-1-0.7-2-0.7-3V4.3z M354.4,45.5h-29.7v12.4h-43.7V77h117.1h-0.1V57.8
	h-43.7V45.5z M392.2,82.4H287.4v18.6h78.8v21.7h26L392.2,82.4L392.2,82.4z M514,6.1v114.5h-23V6.1H514 M473.6,8.1v36h-0.1v1.5
	c0,4.1-0.7,8.2-2,12.1c-1.3,3.8-3.3,7.3-6.1,10.7c-3.7,4.3-7.1,8.2-10.6,11.9c-3.8,4.1-7.7,8.1-11.7,12c-4.1,4-8.4,7.9-12.4,11.7
	c-3.9,3.4-7.7,6.8-11.5,10.1l-14.8-15.3c7.1-6.2,14.2-12.8,21.1-19.3c7.2-7,13.5-13.8,19-20.6c1.7-2,3.2-4.5,4.4-7.4
	c1-2.7,1.5-5.8,1.5-9V27.4h-41.9V8.1L473.6,8.1 M515.5,4.6h-26v117.5h26V4.6L515.5,4.6z M475.1,6.6h-67.8v22.3H449v13.4
	c0,3.1-0.5,6-1.4,8.5c-1,2.5-2.3,4.9-4.1,7c-5.7,7-12,13.8-18.9,20.5c-7,6.7-14.4,13.5-22.2,20.3l16.8,17.4c4.1-3.5,8.3-7.2,12.6-11
	c4.2-3.9,8.4-7.8,12.5-11.8c4.1-4,8-8,11.8-12.1c3.8-4.1,7.3-8.1,10.6-12c2.8-3.4,5-7.1,6.4-11.2c1.4-4.1,2.1-8.3,2.1-12.6h0.1
	L475.1,6.6L475.1,6.6z M628.8,6.1v41h15.9v20.8h-15.9v52.7h-23V6.1L628.8,6.1 M573.6,7.4v31.7c0,2.4,0.2,4.9,0.5,8.1
	c0.5,3.2,1.1,5.5,2.1,7.5c3.7,8.2,7.3,15.4,11,22.1c3.6,6.7,8.1,13.9,13.7,21.9l-15.8,14c-4.1-5.1-8.1-10.6-11.8-16.2
	c-4.1-6.2-7.6-11.9-10.9-17.4l-1.3-2.2l-1.3,2.2c-3.5,5.9-7.2,11.7-11.2,17.6c-3.7,5.6-7.6,11-11.9,16.4l-16.9-13.2
	c5.4-7.2,10.3-14.8,14.6-22.5c4.2-7.6,8.1-15.2,11.5-22.8c1-2,1.7-4.4,2.1-7.5c0.4-2.4,0.5-5,0.5-8.1V7.3L573.6,7.4 M630.3,4.6h-26
	v117.5h26V69.4h15.9V45.6h-15.9V4.6z M575.1,5.9h-27.9v33.2c0,2.5-0.1,5.2-0.5,7.9c-0.4,2.7-1,5.1-2,7.1
	c-3.3,7.3-7.1,14.9-11.5,22.7c-4.4,7.9-9.5,15.7-15.3,23.5l19.2,15c4.5-5.7,8.8-11.6,12.9-17.7c4.1-6.2,7.8-12.1,11.2-17.7
	c3.3,5.7,6.9,11.5,10.9,17.5c4,6,8.3,11.9,12.9,17.5l18-15.8c-5.5-7.9-10.4-15.5-14.4-22.9c-4.1-7.4-7.7-14.8-11-22
	c-1-2-1.6-4.4-2-7.1c-0.3-2.7-0.5-5.3-0.5-7.9V5.9L575.1,5.9z"/>
<linearGradient id="SVGID_00000023999345268618846210000008738229290855026820_" gradientUnits="userSpaceOnUse" x1="731.0914" y1="119.5923" x2="731.0914" y2="2.6292" gradientTransform="matrix(1 0 0 -1 0 124)">
	<stop  offset="0" style="stop-color:#02FCCE"/>
	<stop  offset="0.77" style="stop-color:#61CAFF"/>
	<stop  offset="1" style="stop-color:#61CAFF"/>
</linearGradient>
<path style="fill:url(#SVGID_00000023999345268618846210000008738229290855026820_);" d="M789.6,117.5h-117V95.3h14V57.8h25.3v37.5
	h10.5V57.8h25.3v37.5h41.9L789.6,117.5L789.6,117.5z M782.1,82.6h-26v-53h-76V7.4h102.1L782.1,82.6L782.1,82.6z"/>
<linearGradient id="SVGID_00000168830324090188200320000012165152277309216673_" gradientUnits="userSpaceOnUse" x1="857.0217" y1="119.5923" x2="857.0217" y2="2.6292" gradientTransform="matrix(1 0 0 -1 0 124)">
	<stop  offset="0" style="stop-color:#02FCCE"/>
	<stop  offset="0.77" style="stop-color:#61CAFF"/>
	<stop  offset="1" style="stop-color:#61CAFF"/>
</linearGradient>
<path style="fill:url(#SVGID_00000168830324090188200320000012165152277309216673_);" d="M909.4,122.4h-26v-21.6h-78.7V82.2h12.9
	v-7.4h-18.9V56.3h116.9v18.5h-18.9v7.4h12.9V122.4L909.4,122.4z M884.1,2.8c4.3,0,8.1,0.6,11.6,1.9c3.5,1.2,6.4,2.9,8.8,5.1
	c2.4,2.1,4.3,4.7,5.7,7.6c1.3,2.9,2,6.1,2,9.6s-0.7,6.7-2,9.6c-1.3,2.9-3.2,5.5-5.7,7.6c-2.4,2.1-5.4,3.8-8.8,5.1
	c-3.5,1.2-7.3,1.9-11.6,1.9H830c-4.3,0-8.1-0.6-11.6-1.9c-3.5-1.2-6.4-2.9-8.8-5.1c-2.4-2.1-4.3-4.7-5.7-7.6c-1.4-2.9-2-6.1-2-9.6
	s0.7-6.6,2-9.6c1.3-2.9,3.2-5.5,5.7-7.6c2.4-2.1,5.4-3.8,8.8-5.1c3.5-1.2,7.3-1.9,11.6-1.9H884.1z M879.4,31.6
	c1.9,0,3.4-0.4,4.7-1.3c1.3-0.8,1.9-2,1.9-3.5c0-1.5-0.6-2.7-1.9-3.5s-2.9-1.3-4.7-1.3h-44.9c-1.9,0-3.4,0.4-4.7,1.3
	c-1.3,0.8-1.9,2-1.9,3.5c0,1.5,0.6,2.7,1.9,3.5c1.3,0.8,2.9,1.3,4.7,1.3H879.4z M870.5,82.2v-7.4h-27v7.4H870.5z"/>
<path class="st5" d="M780.6,8.9v72.3h-23v-53h-76V8.9H780.6 M746.1,59.2v37.5H788v19.2H674.1V96.7h14V59.2h22.3v37.5h13.5V59.2
	H746.1 M782.1,7.4H680.1v22.2h76v53h26L782.1,7.4L782.1,7.4z M747.6,57.7h-25.3v37.5h-10.5V57.7h-25.3v37.5h-14v22.2h116.9V95.2
	h-41.9L747.6,57.7L747.6,57.7z M884.1,4.3c4.1,0,7.8,0.6,11.1,1.8c3.3,1.2,6.1,2.8,8.4,4.8c2.3,2,4,4.4,5.3,7.1
	c1.2,2.7,1.9,5.7,1.9,9c0,3.2-0.6,6.2-1.9,9c-1.2,2.7-3,5.1-5.3,7.1c-2.3,2-5.1,3.6-8.4,4.8c-3.3,1.2-7,1.8-11.1,1.8H830
	c-4.1,0-7.8-0.6-11.1-1.8c-3.3-1.2-6.1-2.8-8.4-4.8c-2.3-2-4-4.4-5.3-7.1c-1.2-2.7-1.9-5.7-1.9-9c0-3.2,0.6-6.2,1.9-9
	c1.2-2.7,3-5.1,5.3-7.1s5.1-3.6,8.4-4.8c3.3-1.2,7-1.8,11.1-1.8H884.1 M834.6,33.1h44.9c2.2,0,4-0.5,5.5-1.5
	c1.7-1.1,2.6-2.8,2.6-4.8s-0.9-3.7-2.6-4.8c-1.5-1-3.4-1.5-5.5-1.5h-44.9c-2.2,0-4,0.5-5.5,1.5c-1.7,1.1-2.6,2.8-2.6,4.8
	s0.9,3.7,2.6,4.8C830.6,32.6,832.5,33.1,834.6,33.1 M914,57.7v15.5H895v10.4h12.9v37.3h-23V99.3h-78.7V83.7H819V73.4h-18.9V57.8
	L914,57.7 M842,83.7h30V73.4h-30L842,83.7 M884.1,2.8H830c-4.3,0-8.1,0.6-11.6,1.9c-3.5,1.2-6.4,2.9-8.8,5.1
	c-2.4,2.1-4.3,4.7-5.7,7.6c-1.3,2.9-2,6.1-2,9.6s0.7,6.7,2,9.6c1.3,2.9,3.2,5.5,5.7,7.6c2.4,2.1,5.4,3.8,8.8,5.1
	c3.5,1.2,7.3,1.9,11.6,1.9h54.1c4.3,0,8.1-0.6,11.6-1.9c3.5-1.2,6.4-2.9,8.8-5.1c2.4-2.1,4.3-4.7,5.7-7.6c1.4-2.9,2-6.1,2-9.6
	s-0.7-6.6-2-9.6c-1.3-2.9-3.2-5.5-5.7-7.6C902,7.7,899,6,895.6,4.7C892.2,3.5,888.3,2.8,884.1,2.8z M834.6,31.6
	c-1.9,0-3.4-0.4-4.7-1.3c-1.3-0.8-1.9-2-1.9-3.5c0-1.5,0.6-2.7,1.9-3.5c1.3-0.8,2.9-1.3,4.7-1.3h44.9c1.9,0,3.4,0.4,4.7,1.3
	c1.3,0.8,1.9,2,1.9,3.5c0,1.5-0.6,2.7-1.9,3.5c-1.3,0.8-2.9,1.3-4.7,1.3H834.6z M915.5,56.2H798.6v18.5h18.9v7.4h-12.9v18.5h78.7
	v21.6h26V82.1h-12.9v-7.4h18.9L915.5,56.2L915.5,56.2z M843.5,82.2v-7.4h27v7.4H843.5L843.5,82.2z"/>
</svg>
