<svg width="252" xmlns="http://www.w3.org/2000/svg" viewBox="0 0 180 180"><radialGradient id="a" cx="-81.354" cy="388.752" r="23.565" gradientTransform="matrix(1.188 -.6762 .6762 1.188 -76.215 -426.867)" gradientUnits="userSpaceOnUse"><stop offset="0" stop-color="#4e31f7"/><stop offset=".882" stop-color="#4e31f7" stop-opacity=".5"/><stop offset="1" stop-color="#4e31f7" stop-opacity="0"/></radialGradient><circle cx="90" cy="90" r="32.2" opacity=".3" fill="url(#a)"/><radialGradient id="b" cx="-87.859" cy="395.823" r="7.071" gradientTransform="matrix(1.188 -.6762 .6762 1.188 -76.215 -426.867)" gradientUnits="userSpaceOnUse"><stop offset="0" stop-color="#fff" stop-opacity=".5"/><stop offset=".882" stop-color="#fff" stop-opacity=".5"/><stop offset="1" stop-color="#fff" stop-opacity="0"/></radialGradient><circle cx="87.1" cy="102.8" r="9.7" opacity=".2" fill="url(#b)"/><radialGradient id="c" cx="163.044" cy="-1146.763" r="4.437" gradientTransform="matrix(-13.3849 1.9953 -.05081 -.3405 2214.07 -625.849)" gradientUnits="userSpaceOnUse"><stop offset="0" stop-color="#fff"/><stop offset=".264" stop-color="#9898ff" stop-opacity=".711"/><stop offset=".64" stop-color="#00f" stop-opacity=".3"/><stop offset=".677" stop-color="#00f" stop-opacity=".269"/><stop offset="1" stop-color="#00f" stop-opacity="0"/></radialGradient><path d="M30.6 98.9c-.1-.9 26.4-5.5 59.2-10.4 32.8-4.9 59.5-8.2 59.6-7.3.1.8-26.4 5.5-59.2 10.4-32.8 4.8-59.5 8.1-59.6 7.3z" fill="url(#c)"/><radialGradient id="d" cx="150.657" cy="257.923" r="8.131" gradientTransform="matrix(-9.3117 -9.8198 .2498 -.237 1428.46 1630.52)" gradientUnits="userSpaceOnUse"><stop offset=".204" stop-color="#fff"/><stop offset=".301" stop-color="#c798ca" stop-opacity=".659"/><stop offset=".403" stop-color="#892890" stop-opacity=".3"/><stop offset=".428" stop-color="#7522a0" stop-opacity=".3"/><stop offset=".48" stop-color="#5118bd" stop-opacity=".3"/><stop offset=".535" stop-color="#340fd5" stop-opacity=".3"/><stop offset=".593" stop-color="#1d08e8" stop-opacity=".3"/><stop offset=".655" stop-color="#0d04f5" stop-opacity=".3"/><stop offset=".725" stop-color="#0301fd" stop-opacity=".3"/><stop offset=".817" stop-color="#00f" stop-opacity=".3"/><stop offset=".836" stop-color="#00f" stop-opacity=".269"/><stop offset="1" stop-color="#00f" stop-opacity="0"/></radialGradient><path d="M5.5.9C6.8-.3 45.2 39.2 91.8 88.4c46.7 49.2 83.9 89.5 82.6 90.7-1.3 1.2-39.4-38.1-86.1-87.3C41.7 42.6 4.3 2.1 5.5.9z" fill="url(#d)"/><radialGradient id="e" cx="179.822" cy="-326.322" r="4.481" gradientTransform="matrix(-9.3556 7.7472 -.3472 -.4178 1659.012 -1439.484)" gradientUnits="userSpaceOnUse"><stop offset="0" stop-color="#fff"/><stop offset=".104" stop-color="#fff" stop-opacity=".896"/><stop offset="1" stop-color="#fff" stop-opacity="0"/></radialGradient><path d="M48.1 124.7c-.9-1 17.2-17.4 40.4-36.6s42.6-33.9 43.5-32.8c.9 1-17.2 17.4-40.4 36.6s-42.7 33.8-43.5 32.8z" opacity=".1" fill="url(#e)"/><radialGradient id="f" cx="-81.354" cy="388.752" r="7.217" gradientTransform="matrix(1.188 -.6762 .6762 1.188 -76.215 -426.867)" gradientUnits="userSpaceOnUse"><stop offset="0" stop-color="#ff6dff"/><stop offset="1" stop-color="#ff6dff" stop-opacity="0"/></radialGradient><circle cx="90" cy="90" r="9.9" fill="url(#f)"/><radialGradient id="g" cx="-81.354" cy="388.752" r="3.359" gradientTransform="matrix(1.188 -.6762 .6762 1.188 -76.215 -426.867)" gradientUnits="userSpaceOnUse"><stop offset="0" stop-color="#fff"/><stop offset=".954" stop-color="#fff" stop-opacity=".046"/><stop offset="1" stop-color="#fff" stop-opacity="0"/></radialGradient><circle cx="90" cy="90" r="4.6" fill="url(#g)"/><radialGradient id="h" cx="-81.354" cy="388.752" r="6.856" gradientTransform="matrix(1.188 -.6762 .6762 1.188 -76.215 -426.867)" gradientUnits="userSpaceOnUse"><stop offset="0" stop-color="#fff"/><stop offset="1" stop-color="#fff" stop-opacity="0"/></radialGradient><circle cx="90" cy="90" r="9.4" opacity=".5" fill="url(#h)"/></svg>