<?xml version="1.0" encoding="utf-8"?>
<!-- Generator: Adobe Illustrator 25.4.1, SVG Export Plug-In . SVG Version: 6.00 Build 0)  -->
<svg width="950px" version="1.1" id="Layer_1" xmlns="http://www.w3.org/2000/svg" xmlns:xlink="http://www.w3.org/1999/xlink" x="0px" y="0px"
	 viewBox="0 0 987 123" style="enable-background:new 0 0 987 123;" xml:space="preserve">
<style type="text/css">
	.st0{fill:#E3E0F2;}
	.st1{opacity:0.5;}
	.st2{fill:#FFFFFF;}
</style>
<path class="st0" d="M87.2,25.9H12V10h24.9V1.5h25.9V10h24.4V25.9z M37.5,67.9c-3.4,0-6.6-0.5-9.6-1.4c-2.9-0.9-5.5-2.2-7.6-3.9
	c-2.1-1.7-3.8-3.8-5-6.1c-1.2-2.4-1.8-5.2-1.8-8.2c0-3,0.6-5.8,1.8-8.2c1.2-2.4,2.8-4.5,5-6.1c2.1-1.7,4.7-3,7.6-3.9
	c2.9-0.9,6.1-1.4,9.6-1.4h24.2c3.4,0,6.6,0.5,9.6,1.4c2.9,0.9,5.5,2.2,7.6,3.9c2.1,1.7,3.8,3.8,5,6.1c1.2,2.4,1.8,5.2,1.8,8.2
	c0,3-0.6,5.8-1.8,8.2c-1.2,2.4-2.8,4.5-5,6.1c-2.1,1.7-4.7,3-7.6,3.9c-2.9,0.9-6.1,1.4-9.6,1.4L37.5,67.9L37.5,67.9z M119.3,120.8
	h-98V72.5h25.5v7.3h47.1v-7.3h25.5L119.3,120.8L119.3,120.8z M55.9,51.5c1.3,0,2.3-0.3,3.2-0.8c0.8-0.6,1.2-1.4,1.2-2.3
	c0-1.1-0.4-1.9-1.3-2.3c-0.8-0.5-1.9-0.8-3.2-0.8H43.2c-1.3,0-2.3,0.3-3.2,0.8c-0.8,0.5-1.3,1.3-1.3,2.3s0.4,1.9,1.3,2.3
	c0.8,0.5,1.9,0.8,3.2,0.8H55.9z M93.8,103.6v-7.9H46.7v7.9H93.8z M119.3,68.7H93.8V5.8h25.5v21.3h12.7v21.9h-12.7
	C119.3,48.9,119.3,68.7,119.3,68.7z"/>
<path class="st0" d="M243.3,72.2h-25.5v-10H194v-7.8c-2.7,2.3-6,4.3-9.5,5.8c-7,3-14.4,5.9-22.2,8.4c-7.8,2.5-15.7,5.1-23.6,7.5
	l-8-19c7.7-2.6,15.2-5.4,22.4-8.1c7.3-2.8,13.9-5.7,19.7-8.4c1.5-0.7,2.5-1.7,3.1-2.8c0.6-1.2,0.9-2.6,0.9-4.2v-4.8h-40.9V7.2h66.3
	v6.7h15.4V5.8h25.5L243.3,72.2L243.3,72.2z M243.3,121.5h-25.5v-24h-72.6V76.1h98V121.5z M217.8,42.6v-9h-15.4v1.5
	c0,1.4-0.1,2.7-0.3,4c-0.2,1.3-0.4,2.4-0.7,3.6L217.8,42.6z M362.6,120.8H257.7V91.3h78v-3.1h-78V74.4h13.1v-4.2h-18.5V55.4h114.4
	v14.8h-18.5v4.2h13.1v29.1h-78v3.1h79.3L362.6,120.8L362.6,120.8z M362.2,52.3H257.8V22.9h77.4v-3.1h-77.4V6.2h102.9v29.1h-77.4v3.1
	h78.8C362.2,38.4,362.2,52.3,362.2,52.3z M322.7,74.4v-4.2h-26.4v4.2H322.7z M408.7,61c0,3.3-1.1,6-3.2,8.2c-2.1,2.1-5,3.2-8.4,3.2
	c-3.2,0-5.9-1.1-8-3.2c-2.1-2.1-3.2-4.9-3.2-8.2c0-3.4,1.1-6.1,3.3-8.3c2.2-2.1,5-3.2,8.4-3.2c3.2,0,5.9,1.1,8,3.3
	C407.7,55.2,408.7,57.9,408.7,61L408.7,61z M501.5,71.3c-5.9-2.5-11.7-4.9-17.4-7.1c-5.7-2.2-11-4.6-16.2-6.9
	c-2.6,1.3-5.4,2.4-8.4,3.6c-3,1.2-6.1,2.4-9.3,3.6c-3.1,1.3-6.3,2.4-9.5,3.6c-3.1,1.2-6.1,2.2-8.9,3.3L423.5,53
	c5.2-2.2,10.1-4.5,14.7-6.5c4.6-2.1,9.4-4.5,14-7.1c0.7-0.4,1.2-0.9,1.4-1.3s0.4-1,0.5-1.7H429V14.6h25.2V5.2h27.2v9.4h25.2v21.9
	h-25.2c0,0.7,0.1,1.3,0.4,1.9c0.3,0.5,0.8,1,1.5,1.3c4.7,2.5,9.2,4.8,13.5,6.7c4.3,2,8.9,4.1,13.7,6.2L501.5,71.3L501.5,71.3z
	 M537.2,120.8h-25.5V86.1l-11,11h-20v23.7H454V97.1h-28.3V75.3h86.2V5.8h25.5L537.2,120.8L537.2,120.8z M655.4,61.9h-25.5V43.7h-14
	c-2.3,5.5-6.2,9.9-11.7,13.1s-12.1,4.8-19.7,4.8h-6.5c-5,0-9.6-0.7-13.8-2.1c-4.2-1.5-7.7-3.4-10.6-6c-2.9-2.6-5.3-5.8-6.9-9.3
	c-1.7-3.6-2.4-7.6-2.4-12.1c0-4.4,0.8-8.5,2.4-12.1c1.7-3.6,3.9-6.7,6.9-9.3c2.9-2.6,6.5-4.6,10.6-6c4.2-1.5,8.8-2.1,13.8-2.1h6.5
	c8,0,14.9,1.8,20.7,5.4c5.8,3.6,9.6,8.5,11.5,14.5h13.3V5.8h25.5V61.9z M655.4,120.8h-98v-55h25.5v8.6H630v-8.6h25.4L655.4,120.8
	L655.4,120.8z M583.1,41.9c2.7,0,5.1-1,6.9-2.8c1.9-1.9,2.8-4.2,2.8-7.1s-1-5.3-2.8-7.1c-1.9-1.9-4.2-2.8-6.9-2.8h-3.6
	c-2.7,0-5.1,1-6.9,2.8c-1.9,1.9-2.8,4.2-2.8,7.1s1,5.3,2.8,7.1c1.9,1.9,4.2,2.8,6.9,2.8C579.5,41.9,583.1,41.9,583.1,41.9z
	 M629.9,101.6v-9.3h-47.1v9.3H629.9L629.9,101.6z M775.9,120.8H671.1V91.3h78v-3.1h-78V74.4h13.1v-4.2h-18.5V55.4h114.5v14.8h-18.5
	v4.2h13.1v29.1h-78v3.1h79.3L775.9,120.8L775.9,120.8z M775.5,52.3H671.2V22.9h77.4v-3.1h-77.4V6.2h102.9v29.1h-77.4v3.1h78.8
	C775.5,38.4,775.5,52.3,775.5,52.3z M736.1,74.4v-4.2h-26.4v4.2H736.1z M854.8,114.8h-27.2V33.6h-12.5V10.2h39.7L854.8,114.8
	L854.8,114.8z M974.9,120.8h-25.5v-40l-11,11.1h-21.3v28.9h-26.7V91.9h-27.1V70.1h86.2V5.8H975L974.9,120.8L974.9,120.8z
	 M895.5,63.8c-4.7,0-8.9-0.8-12.6-2.2c-3.7-1.6-6.9-3.6-9.5-6.2c-2.6-2.6-4.6-5.8-6-9.4c-1.5-3.6-2.1-7.5-2.1-11.7s0.7-8.1,2.1-11.7
	c1.5-3.6,3.4-6.7,6-9.4s5.8-4.8,9.5-6.2c3.7-1.6,7.9-2.2,12.6-2.2h17.2c4.7,0,8.9,0.8,12.6,2.2c3.7,1.6,6.9,3.6,9.5,6.2
	c2.6,2.6,4.6,5.8,6,9.4s2.1,7.5,2.1,11.7s-0.7,8.1-2,11.7c-1.4,3.6-3.3,6.7-5.9,9.4s-5.7,4.8-9.3,6.2c-3.6,1.6-7.8,2.2-12.5,2.2
	H895.5L895.5,63.8z M910,41.9c2.4,0,4.3-0.8,5.6-2.3c1.3-1.6,2-3.3,2-5.4c0-2-0.7-3.8-2-5.4c-1.3-1.6-3.1-2.3-5.6-2.3h-11.7
	c-2.4,0-4.3,0.8-5.6,2.3c-1.3,1.6-2,3.3-2,5.4c0,2,0.7,3.8,2,5.4c1.3,1.6,3.1,2.3,5.6,2.3C898.3,41.9,910,41.9,910,41.9z"/>
<g class="st1">
	<path class="st2" d="M61.3,3v8.5h24.4v13H13.5v-13h24.9V3H61.3 M117.8,7.3v21.3h12.7v18.9h-12.7v19.8H95.3v-60L117.8,7.3
		 M61.7,30.2c3.2,0,6.2,0.4,9.2,1.3c2.6,0.8,5,2,7.1,3.7c1.9,1.5,3.4,3.4,4.6,5.7c1.1,2.2,1.7,4.8,1.7,7.6c0,2.8-0.6,5.4-1.7,7.6
		s-2.6,4.1-4.6,5.7c-2.1,1.7-4.5,2.8-7.1,3.7c-2.9,0.9-6,1.3-9.2,1.3H37.5c-3.2,0-6.2-0.4-9.2-1.3c-2.6-0.8-5-2-7.1-3.7
		c-1.9-1.5-3.4-3.4-4.6-5.7c-1.1-2.2-1.7-4.8-1.7-7.6s0.6-5.4,1.7-7.6c1.1-2.2,2.6-4.1,4.6-5.7c2.1-1.7,4.5-2.8,7.1-3.7
		c2.9-0.9,6-1.3,9.2-1.3L61.7,30.2 M39.2,51.9c1.1,0.7,2.4,1,4,1h12.8c1.5,0,2.7-0.3,3.9-1h0.1l0.1-0.1c1.2-0.9,1.8-2,1.8-3.5
		c0-2-1.1-3.1-2-3.6c-1.1-0.7-2.4-1-4-1H43.2c-1.5,0-2.7,0.3-3.9,1c-1.3,0.8-2,2-2,3.6C37.2,50.4,38.3,51.5,39.2,51.9 M117.8,74
		v45.4H22.7V74h22.5v7.3h50V74H117.8 M45.2,105.1h50V94.3h-50V105.1 M62.8,1.5H36.9V10H12v15.9h75.1V10H62.8V1.5z M119.3,5.8H93.8
		v62.9h25.5V48.9h12.7V27.1h-12.7V5.8z M61.7,28.7H37.5c-3.4,0-6.6,0.5-9.6,1.4C25,31,22.5,32.3,20.3,34c-2.1,1.7-3.8,3.7-5,6.1
		s-1.8,5.2-1.8,8.2s0.6,5.8,1.8,8.2c1.2,2.3,2.8,4.5,5,6.1c2.1,1.7,4.7,3,7.6,3.9c2.9,0.9,6.1,1.4,9.6,1.4h24.2
		c3.4,0,6.6-0.5,9.6-1.4c2.9-0.9,5.5-2.2,7.6-3.9c2.1-1.7,3.8-3.7,5-6.1c1.2-2.4,1.8-5.2,1.8-8.2c0-3-0.6-5.8-1.8-8.2
		c-1.2-2.3-2.8-4.5-5-6.1c-2.1-1.7-4.7-3-7.6-3.9C68.3,29.2,65.1,28.7,61.7,28.7z M43.2,51.5c-1.4,0-2.4-0.3-3.2-0.8
		c-0.9-0.5-1.3-1.3-1.3-2.3c0-1.1,0.5-1.9,1.3-2.3c0.9-0.5,2-0.8,3.2-0.8h12.7c1.4,0,2.4,0.3,3.2,0.8c0.9,0.5,1.3,1.3,1.3,2.3
		c0,1-0.4,1.8-1.2,2.3c-0.9,0.5-2,0.8-3.2,0.8L43.2,51.5L43.2,51.5z M119.3,72.5H93.8v7.3H46.7v-7.3H21.2v48.3h98
		C119.3,120.8,119.3,72.5,119.3,72.5z M46.7,103.6v-7.9h47.1v7.9H46.7L46.7,103.6z"/>
	<path class="st2" d="M241.7,7.3v63.5h-22.4v-10h-23.8v-9.6l-2.4,2c-2.6,2.2-5.7,4.1-9.1,5.6c-7.2,3.1-14.7,6-22.1,8.4
		c-8.9,2.9-15.9,5.1-22.3,7.1L132.5,58c6.7-2.3,13.7-4.8,21-7.6c6.8-2.6,13.3-5.4,19.8-8.4c1.8-0.8,3.1-2,3.8-3.5
		c0.7-1.4,1.1-3,1.1-4.9v-6.2h-40.9V8.6h63.4v6.7h18.3V7.3L241.7,7.3 M199.5,44.1h19.7v-12h-18.3v2.9c0,1.3-0.1,2.6-0.3,3.8
		c-0.2,1.1-0.4,2.3-0.7,3.5L199.5,44.1 M241.8,77.6V120h-22.5V96h-72.6V77.6H241.8 M243.2,5.8h-25.5v8.1h-15.4V7.2h-66.3v21.7h40.9
		v4.8c0,1.6-0.3,3-0.9,4.2c-0.6,1.2-1.7,2.1-3.1,2.8c-5.9,2.7-12.4,5.6-19.7,8.4c-7.2,2.7-14.7,5.5-22.4,8.1l8,19
		c7.9-2.4,15.8-5,23.6-7.5c7.8-2.5,15.2-5.4,22.2-8.4c3.5-1.5,6.7-3.4,9.5-5.8v7.8h23.8v10h25.5h-0.1V5.8z M201.4,42.7
		c0.3-1.2,0.5-2.3,0.7-3.6c0.2-1.3,0.3-2.6,0.3-4v-1.5h15.4v9.1H201.4z M243.3,76.1h-98v21.4h72.6v24h25.5V76.1z M359.3,7.6v26.1
		h-77.4v6h78.8v11H259.3V24.3h77.4v-6h-77.4V7.6L359.3,7.6 M365.2,56.8v11.9h-18.5v7.1h13.1V102h-78v6H361v11.3H259.2V92.7h78v-6
		h-78V75.8h13.1v-7.1h-18.5V56.8L365.2,56.8 M294.8,75.8h29.4v-7.1h-29.4V75.8 M360.7,6.2H257.8v13.6h77.4v3.1h-77.4v29.5h104.4v-14
		h-78.8v-3.1h77.4L360.7,6.2L360.7,6.2z M366.7,55.4H252.2v14.8h18.5v4.2h-13.1v13.8h78v3.1h-78v29.6h104.9h-0.1v-14.2h-79.3v-3.1
		h78V74.4h-13.1v-4.2h18.5L366.7,55.4L366.7,55.4z M296.2,74.4v-4.2h26.4v4.2H296.2z M397.6,51c2.8,0,5.1,1,6.9,2.8
		c1.9,2,2.7,4.4,2.7,7.2c0,2.9-0.9,5.3-2.8,7.1c-1.9,1.9-4.3,2.8-7.3,2.8c-2.8,0-5.1-0.9-6.9-2.8c-1.9-1.9-2.8-4.2-2.8-7.1
		c0-3,1-5.4,2.8-7.2C392.1,51.8,394.6,51,397.6,51 M397.6,49.5c-3.4,0-6.1,1.1-8.4,3.2c-2.2,2.1-3.3,4.9-3.3,8.3
		c0,3.3,1.1,6,3.2,8.2c2.1,2.1,4.8,3.2,8,3.2c3.4,0,6.2-1.1,8.4-3.2c2.1-2.1,3.2-4.9,3.2-8.2c0-3.1-1-5.9-3.1-8.2
		C403.5,50.6,400.8,49.5,397.6,49.5L397.6,49.5z M480,6.7V16h25.2V35H480v1.5c0,1,0.2,1.8,0.6,2.5v0.1c0.5,0.8,1.2,1.5,2,1.9
		c4.7,2.5,9.2,4.8,13.5,6.7c1.8,0.8,3.5,1.6,5.3,2.4c2.2,1.1,4.6,2.1,7,3.2l-7.6,16c-5.5-2.3-10.9-4.5-16.1-6.5
		c-4.9-2-10-4.1-16.1-6.9l-0.6-0.3l-0.6,0.3c-2.5,1.3-5.3,2.4-8.3,3.6c-1.2,0.5-2.3,0.9-3.5,1.4c-1.9,0.8-3.9,1.6-5.9,2.2
		c-2.4,1-5,2-7.4,2.8l-2,0.8c-1.2,0.4-2.2,0.9-3.3,1.3c-1.5,0.6-2.9,1.1-4.3,1.6l-7.2-15.7c3.7-1.7,7.3-3.2,10.7-4.8l2.6-1.2
		c5.8-2.7,10.1-4.9,14.1-7.2c0.9-0.5,1.6-1.2,2-1.9c0.3-0.6,0.5-1.4,0.6-2.1l0.2-1.7h-25.2V16h25.2V6.7L480,6.7 M535.8,7.3v112.1
		h-22.6V82.6l-2.5,2.5L500,95.7h-20.7v23.6h-23.8V95.6h-28.4V76.7h86.2V7.3L535.8,7.3 M481.5,5.2h-27.2v9.4h-25.2v21.9h25.2
		c-0.1,0.7-0.3,1.3-0.5,1.7s-0.7,0.9-1.4,1.3c-4.7,2.6-9.5,5-14,7.1c-4.6,2-9.6,4.3-14.7,6.5l8.4,18.3c2.7-1.1,5.8-2.1,8.9-3.3
		c3.1-1.2,6.3-2.3,9.5-3.6c3.1-1.2,6.2-2.4,9.3-3.6c3-1.2,5.8-2.3,8.4-3.6c5.2,2.3,10.5,4.7,16.2,6.9c5.7,2.2,11.5,4.6,17.4,7.1
		l8.9-18.7c-4.8-2.1-9.4-4.3-13.7-6.2c-4.3-2-8.8-4.2-13.5-6.7c-0.7-0.3-1.2-0.8-1.5-1.3c-0.3-0.6-0.4-1.2-0.4-1.9h25.2V14.6h-25.2
		C481.5,14.6,481.5,5.2,481.5,5.2z M537.3,5.8h-25.5v69.5h-86.1v21.9h28.4v23.7h26.7V97.1h20l11-11v34.7h25.6L537.3,5.8L537.3,5.8z
		 M584.4,3.9c7.8,0,14.4,1.8,19.9,5.2c5.4,3.4,9.1,8,10.9,13.8l0.3,1h15.8V7.3h22.5v53.2h-22.5V42.3h-16.5l-0.4,0.9
		c-2.2,5.2-6,9.4-11.1,12.4c-5.2,3-11.5,4.6-18.9,4.6h-6.5c-5,0-9.3-0.7-13.3-2c-4.1-1.5-7.4-3.3-10.1-5.8c-2.8-2.5-5-5.5-6.5-8.8
		c-1.6-3.4-2.3-7.1-2.3-11.5c0-4.3,0.8-8.2,2.3-11.5c1.7-3.6,3.8-6.4,6.5-8.8c2.6-2.3,6-4.3,10.1-5.8c4-1.4,8.3-2,13.3-2H584.4
		 M579.5,43.4h3.6c3.1,0,5.9-1.2,8-3.2c2.1-2.1,3.2-4.9,3.2-8.2c0-3.2-1.1-6-3.2-8.2c-2.1-2.1-4.9-3.2-8-3.2h-3.6
		c-3.1,0-5.9,1.2-8,3.2c-2.1,2.1-3.2,4.9-3.2,8.2c0,3.2,1.1,6,3.2,8.2C573.7,42.2,576.4,43.4,579.5,43.4 M653.9,67.3v52.1h-95V67.3
		h22.5v8.6h50v-8.6H653.9 M581.3,103.1h50V90.9h-50V103.1 M584.4,2.5h-6.5c-5,0-9.6,0.7-13.8,2.1c-4.1,1.5-7.7,3.4-10.6,6
		c-3,2.5-5.3,5.7-6.9,9.3c-1.7,3.6-2.4,7.7-2.4,12.1c0,4.5,0.8,8.5,2.4,12.1c1.7,3.5,4,6.6,6.9,9.3c2.9,2.6,6.4,4.6,10.6,6
		c4.2,1.5,8.8,2.1,13.8,2.1h6.5c7.6,0,14.2-1.6,19.7-4.8c5.5-3.2,9.4-7.6,11.7-13.1h14v18.1h25.5V5.8h-25.5v16.6h-13.3
		c-2-6-5.8-10.9-11.5-14.5C599.4,4.2,592.4,2.5,584.4,2.5z M579.5,41.9c-2.7,0-5.1-1-6.9-2.8c-1.9-1.9-2.8-4.2-2.8-7.1
		s1-5.3,2.8-7.1c1.9-1.9,4.2-2.8,6.9-2.8h3.6c2.7,0,5.1,1,6.9,2.8c1.9,1.9,2.8,4.2,2.8,7.1s-1,5.3-2.8,7.1c-1.9,1.9-4.2,2.8-6.9,2.8
		C583.1,41.9,579.5,41.9,579.5,41.9z M655.4,65.8H630v8.6h-47.1v-8.6h-25.5v55h98C655.4,120.8,655.4,65.8,655.4,65.8z M582.8,101.6
		v-9.3h47.1v9.3H582.8z M772.6,7.6v26.1h-77.4v6h78.8v11H672.6V24.3H750v-6h-77.4V7.6L772.6,7.6 M778.7,56.8v11.9h-18.5v7.1h13.1
		V102h-78v6h79.3v11.3h-102V92.7h78v-6h-78V75.8h13.1v-7.1h-18.5V56.8L778.7,56.8 M708.2,75.8h29.4v-7.1h-29.4V75.8 M774.1,6.2
		H671.2v13.6h77.4v3.1h-77.4v29.5h104.4v-14h-78.8v-3.1h77.4V6.2z M780.1,55.4H665.6v14.8h18.5v4.2h-13.1v13.8h78v3.1h-78v29.6
		h104.9v-14.2h-79.3v-3.1h78V74.4h-13.1v-4.2h18.5L780.1,55.4L780.1,55.4z M709.7,74.4v-4.2h26.4v4.2H709.7z M853.3,11.6v101.7H829
		V32.1h-12.5V11.6L853.3,11.6 M854.8,10.2h-39.7v23.4h12.5v81.2h27.2L854.8,10.2L854.8,10.2z M912.7,6.2c4.4,0,8.5,0.7,12,2.1
		c3.7,1.6,6.7,3.5,9,6c2.4,2.4,4.3,5.3,5.8,8.9c1.4,3.4,2,7,2,11.1c0,4-0.7,7.8-2,11.2c-1.3,3.4-3.1,6.4-5.6,8.9
		c-2.4,2.5-5.4,4.6-8.8,6c-3.3,1.5-7.2,2.1-11.9,2.1h-17.8c-4.4,0-8.5-0.7-12-2.1c-3.7-1.6-6.7-3.5-9-6c-2.4-2.4-4.3-5.3-5.8-8.9
		c-1.4-3.4-2-7-2-11.1s0.7-7.8,2-11.1c1.5-3.6,3.3-6.4,5.8-8.9c2.6-2.6,5.7-4.6,9-6c3.4-1.5,7.3-2.1,12-2.1L912.7,6.2 M898.3,43.4
		H910c2.9,0,5.2-1,6.7-2.9c1.5-1.9,2.2-4,2.2-6.2c0-2.2-0.8-4.5-2.2-6.2c-1.6-2-3.8-2.9-6.7-2.9h-11.7c-2.9,0-5.2,1-6.7,2.9
		c-1.5,1.9-2.2,4-2.2,6.2c0,2.2,0.8,4.5,2.2,6.2C893.1,42.4,895.4,43.4,898.3,43.4 M973.5,7.3v112.1h-22.6v-42l-2.5,2.5l-10.6,10.7
		h-22.1v28.9h-23.8v-29h-27V71.5H951V7.3L973.5,7.3 M912.7,4.7h-17.2c-4.7,0-8.9,0.7-12.6,2.2c-3.7,1.5-6.8,3.6-9.5,6.2
		s-4.6,5.8-6,9.4c-1.5,3.6-2.1,7.5-2.1,11.7s0.7,8.1,2.1,11.7c1.5,3.6,3.4,6.7,6,9.4c2.5,2.6,5.8,4.7,9.5,6.2
		c3.7,1.5,7.9,2.2,12.6,2.2h17.8c4.7,0,8.9-0.7,12.5-2.2c3.6-1.5,6.7-3.6,9.3-6.2c2.5-2.6,4.5-5.8,5.9-9.4s2-7.5,2-11.7
		s-0.7-8.1-2.1-11.7s-3.4-6.7-6-9.4c-2.5-2.6-5.8-4.7-9.5-6.2C921.6,5.5,917.4,4.7,912.7,4.7L912.7,4.7z M898.3,41.9
		c-2.4,0-4.3-0.8-5.6-2.3c-1.3-1.6-2-3.4-2-5.4c0-2,0.7-3.8,2-5.4c1.3-1.6,3.1-2.3,5.6-2.3H910c2.4,0,4.3,0.8,5.6,2.3
		c1.3,1.6,2,3.4,2,5.4c0,2-0.7,3.8-2,5.4c-1.3,1.6-3.1,2.3-5.6,2.3C910,41.9,898.3,41.9,898.3,41.9z M975,5.8h-25.5v64.3h-86.2v21.9
		h27.1v28.9h26.7V91.9h21.3l11-11.1v40H975L975,5.8L975,5.8z"/>
</g>
</svg>
