<svg xmlns="http://www.w3.org/2000/svg" width="189" height="189" viewBox="0 0 189 189"><path fill="#f2f4fc" d="M0 0h189v189H0z"/><path fill="#392e4b" d="M30.999 43.511h1.41v-4.335h-1.32v-1.215h7.545v1.215h-1.305v4.23q.48-.03.908-.06t.908-.075l.1 1.185q-.7.06-1.4.105t-1.62.083q-.923.038-2.175.052t-3.053.03zm2.76 4.665a1.89 1.89 0 01.293-1.012 2.651 2.651 0 01.84-.825 4.412 4.412 0 011.335-.548 7.413 7.413 0 011.778-.195 7.413 7.413 0 011.778.195 4.412 4.412 0 011.334.545 2.651 2.651 0 01.84.825 1.89 1.89 0 01.292 1.015v.585a1.89 1.89 0 01-.292 1.013 2.581 2.581 0 01-.84.818 4.541 4.541 0 01-1.335.54 7.413 7.413 0 01-1.778.2 7.413 7.413 0 01-1.778-.2 4.541 4.541 0 01-1.335-.54 2.581 2.581 0 01-.84-.818 1.89 1.89 0 01-.293-1.013zm6.96-2.76v-2.685h-1.965v-1.275h1.965v-.78h-1.965v-1.275h1.965v-2.3h1.47v8.31zm.075 2.865a.919.919 0 00-.195-.54 1.692 1.692 0 00-.555-.472 3.5 3.5 0 00-.877-.333 4.869 4.869 0 00-1.162-.127 4.869 4.869 0 00-1.163.127 3.5 3.5 0 00-.877.33 1.692 1.692 0 00-.555.472.919.919 0 00-.195.54v.358a.919.919 0 00.195.54 1.692 1.692 0 00.557.478 3.5 3.5 0 00.877.33 4.869 4.869 0 001.163.127 4.869 4.869 0 001.16-.127 3.5 3.5 0 00.878-.33 1.692 1.692 0 00.555-.473.919.919 0 00.195-.54zm-4.89-4.815v-4.29h-2.07v4.335zm11.28 7.56v-3.78h7.11v-1.335h-7.185v-1.23h8.64v3.765h-7.11v1.35h7.5v1.23zm7.1-7.035v-6.885h1.47v6.885zm-6.06-6.69a4.018 4.018 0 011.485.255 3.4 3.4 0 011.08.66 2.682 2.682 0 01.653.915 2.582 2.582 0 01.217 1.02v.6a2.616 2.616 0 01-.222 1.035 2.682 2.682 0 01-.653.915 3.3 3.3 0 01-1.08.653 4.127 4.127 0 01-1.485.247 4.127 4.127 0 01-1.485-.247 3.3 3.3 0 01-1.08-.653 2.682 2.682 0 01-.653-.915 2.616 2.616 0 01-.218-1.035v-.6a2.582 2.582 0 01.218-1.02 2.682 2.682 0 01.653-.915 3.4 3.4 0 011.08-.66 4.018 4.018 0 011.485-.255zm0 5.025a2.4 2.4 0 00.855-.142 1.952 1.952 0 00.63-.375 1.61 1.61 0 00.39-.532 1.484 1.484 0 00.135-.615v-.426a1.484 1.484 0 00-.135-.615 1.534 1.534 0 00-.39-.525 2.032 2.032 0 00-.63-.368 2.4 2.4 0 00-.855-.142 2.515 2.515 0 00-.855.135 1.854 1.854 0 00-.63.368 1.61 1.61 0 00-.39.533 1.484 1.484 0 00-.135.615v.42a1.484 1.484 0 00.135.615 1.61 1.61 0 00.39.532 1.952 1.952 0 00.63.375 2.4 2.4 0 00.85.147zm11.895 2.4a13.049 13.049 0 00.448 3.39 9.939 9.939 0 001.6 3.27h-1.38a8.8 8.8 0 01-1.663-3.03 12.15 12.15 0 01-.54-3.705v-.6a12.006 12.006 0 01.54-3.69 8.821 8.821 0 011.665-3.015h1.38a9.814 9.814 0 00-1.582 3.157 12.606 12.606 0 00-.472 3.473zm5.445 6.3v-3.19h7.53v-.81h-7.6v-1.2h9.06v3.16h-7.59v.84h8v1.2zm2-9.315a4.581 4.581 0 01-2.5-.577 1.713 1.713 0 01-.897-1.478v-.39a1.535 1.535 0 01.233-.825 2.085 2.085 0 01.667-.653 3.461 3.461 0 011.065-.427 6.172 6.172 0 011.425-.15 4.713 4.713 0 012.5.585 1.7 1.7 0 01.892 1.47v.39a1.713 1.713 0 01-.897 1.48 4.581 4.581 0 01-2.498.575zm5.52 3.6v-.465h-2.925v-1.14h2.925v-6.6h1.47v8.205zm-6.405-.03v-1.86q-.735.03-1.575.03h-1.845v-1.185q1.635 0 2.842-.015t2.213-.053q1.005-.037 1.9-.1t1.882-.15l.12 1.14q-.99.105-1.943.173t-2.122.112v1.905zm.885-4.815a3.253 3.253 0 001.507-.262q.473-.263.472-.623v-.24q0-.36-.472-.615a3.336 3.336 0 00-1.507-.255 3.336 3.336 0 00-1.508.255q-.473.255-.472.615v.24q0 .36.472.623a3.253 3.253 0 001.498.262zm14.675 10.47v-4.755h-5.6v-1.26h12.69v1.26h-5.6v4.755zm2.415-8.64a7.868 7.868 0 01-1.133-.66 1.979 1.979 0 01-.532-.54h-.015a1.807 1.807 0 01-.525.548 7.756 7.756 0 01-1.14.668q-.615.3-1.44.675t-1.755.735l-.585-1.215q.84-.315 1.71-.7t1.59-.773a5.16 5.16 0 00.645-.42 1.97 1.97 0 00.443-.472 1.8 1.8 0 00.247-.585 3.3 3.3 0 00.075-.742v-1.23h1.485v1.23a3.3 3.3 0 00.075.742 1.9 1.9 0 00.24.585 1.9 1.9 0 00.427.472 4.351 4.351 0 00.653.42q.72.39 1.59.773t1.71.7l-.57 1.2q-.93-.36-1.755-.735t-1.44-.676zm11.445-4.98l-4.59 13.44h-1.425l4.575-13.44zm9.66 10.74q-.93.09-1.77.157t-1.822.113q-.983.045-2.243.068t-3.03.022v-1.26h2.01q.9 0 1.665-.03v-1.365a3.88 3.88 0 01-1.132-.3 3.16 3.16 0 01-.848-.54 2.23 2.23 0 01-.525-.7 1.83 1.83 0 01-.18-.787v-.57a1.816 1.816 0 01.232-.878 2.416 2.416 0 01.66-.758 3.332 3.332 0 011.051-.522 4.684 4.684 0 011.4-.195 4.684 4.684 0 011.4.195 3.332 3.332 0 011.05.525 2.416 2.416 0 01.66.758 1.816 1.816 0 01.233.878v.57a1.987 1.987 0 01-.663 1.446 3.366 3.366 0 01-1.868.847v1.35q1-.03 1.852-.1t1.748-.144zm.69 2.88v-13.83h1.47v5.53h2.07v1.29h-2.07v7.01zm-1.32-11h-7.95v-1.27h3.315v-1.665h1.473v1.665h3.165zm-3.9 4.64a2.233 2.233 0 001.41-.39 1.119 1.119 0 00.5-.885v-.3a1.115 1.115 0 00-.5-.885 2.238 2.238 0 00-1.4-.39 2.233 2.233 0 00-1.41.39 1.119 1.119 0 00-.495.885v.3a1.115 1.115 0 00.5.885 2.238 2.238 0 001.395.39zm20.115-2.04h-3.75v1.41h5.595v1.26h-12.69v-1.26h5.6v-1.41h-3.75v-4.95h9zm-9.21 3.99h9.285v4.545h-1.485v-3.285h-7.8zm7.74-7.7h-6.06v2.46h6.06zm6.193 5.15a12.606 12.606 0 00-.472-3.473 9.814 9.814 0 00-1.583-3.158h1.38a8.822 8.822 0 011.665 3.015 12.006 12.006 0 01.54 3.69v.6a12.15 12.15 0 01-.54 3.705 8.8 8.8 0 01-1.665 3.03h-1.38a9.939 9.939 0 001.608-3.269 13.049 13.049 0 00.45-3.39zm12.483 6.96v-4.755h-5.6v-1.26h12.69v1.26h-5.59v4.755zm2.417-8.64a7.868 7.868 0 01-1.132-.66 1.979 1.979 0 01-.533-.54h-.015a1.807 1.807 0 01-.525.548 7.756 7.756 0 01-1.14.668q-.615.3-1.44.675t-1.755.735l-.587-1.216q.84-.315 1.71-.7t1.59-.773a5.16 5.16 0 00.645-.42 1.97 1.97 0 00.442-.472 1.8 1.8 0 00.248-.585 3.3 3.3 0 00.075-.742v-1.23h1.485v1.23a3.3 3.3 0 00.075.742 1.9 1.9 0 00.24.585 1.9 1.9 0 00.427.472 4.351 4.351 0 00.653.42q.72.39 1.59.773t1.71.7l-.57 1.2q-.93-.36-1.755-.735t-1.438-.675zm15.72 1.89v-2.8h-2.807a2.721 2.721 0 01-.307.945 2.786 2.786 0 01-.675.825 3.333 3.333 0 01-1.035.577 4.1 4.1 0 01-1.388.218 4.063 4.063 0 01-1.5-.255 3.235 3.235 0 01-1.072-.668 2.784 2.784 0 01-.645-.93 2.67 2.67 0 01-.217-1.043v-.57a2.67 2.67 0 01.216-1.049 2.784 2.784 0 01.645-.93 3.235 3.235 0 011.072-.67 4.063 4.063 0 011.5-.255 4.038 4.038 0 011.38.218 3.443 3.443 0 011.028.57 2.766 2.766 0 01.675.8 2.824 2.824 0 01.323.93h2.805v-3h1.47v7.08zm1.47.675v6.075h-8.627v-6.075H151v1.755h5.685v-1.755zm-7.68-2.19a2.287 2.287 0 00.855-.15 1.98 1.98 0 00.63-.39 1.692 1.692 0 00.39-.54 1.484 1.484 0 00.135-.615v-.42a1.484 1.484 0 00-.135-.615 1.61 1.61 0 00-.39-.533 2.059 2.059 0 00-.63-.382 2.287 2.287 0 00-.855-.15 2.287 2.287 0 00-.855.15 2.058 2.058 0 00-.63.382 1.61 1.61 0 00-.39.533 1.484 1.484 0 00-.135.615v.42a1.484 1.484 0 00.135.615 1.692 1.692 0 00.39.54 1.98 1.98 0 00.63.39 2.287 2.287 0 00.852.15zm6.21 7v-1.81H151v1.815z" opacity=".67"/><path fill="#333" d="M64.015 80.42h-2.5V69.98h2.5zm.48 10.608h-16.56V85.1h13.588v-1.536H47.911v-2.208h16.1v5.9h-13.58v1.564h14.064zm-6.12-10.968q-.768-.5-1.56-1.08t-1.572-1.164q-.78-.588-1.5-1.188t-1.32-1.176q-.576.576-1.308 1.2t-1.548 1.26q-.816.636-1.644 1.248t-1.572 1.14l-1.416-1.752q1.584-1.152 3.06-2.34a27.149 27.149 0 002.58-2.34 2 2 0 00.456-.72 2.659 2.659 0 00.12-.84v-2.016h2.544v2.016a2.774 2.774 0 00.12.852 1.784 1.784 0 00.456.708 26.578 26.578 0 002.532 2.22q1.38 1.068 2.988 2.172zm22.948 1.676H68.095v-6.74h8.616v-2.4h-8.616v-2.208h11.112v6.748h-8.616v2.4h10.732zm4.776 9.288h-2.5V85.82h-13.8v-2.208h16.3zm0-8.472h-2.5v-4.268h-3.192v-2.208h3.192v-1.872h-3.192v-2.208h3.192V69.98h2.5zm16.148 8.384a7.721 7.721 0 01-2.076-.264 5.121 5.121 0 01-1.632-.756 3.555 3.555 0 01-1.068-1.204 3.293 3.293 0 01-.384-1.6 3.293 3.293 0 01.384-1.6 3.555 3.555 0 011.068-1.2 5.121 5.121 0 011.632-.756 7.721 7.721 0 012.076-.264h6.476a7.721 7.721 0 012.076.264 5.121 5.121 0 011.632.756 3.555 3.555 0 011.068 1.2 3.293 3.293 0 01.384 1.6 3.293 3.293 0 01-.384 1.6 3.555 3.555 0 01-1.068 1.2 5.121 5.121 0 01-1.632.756 7.721 7.721 0 01-2.076.268zm-2.04-8.88a5.233 5.233 0 01-3.252-.924 3.293 3.293 0 01-1.212-2.796 3.293 3.293 0 011.212-2.8 5.233 5.233 0 013.252-.924h3.36a5.233 5.233 0 013.256.924 3.293 3.293 0 011.212 2.8 3.293 3.293 0 01-1.212 2.8 5.233 5.233 0 01-3.252.924zm13.128.648h-2.5v-12.72h2.5v2.784h2.808V75h-2.808v2.616h2.808v2.232h-2.808zm-4.752 6.164a3.986 3.986 0 002.028-.456 1.428 1.428 0 00.78-1.3 1.428 1.428 0 00-.78-1.3 3.986 3.986 0 00-2.028-.456h-6.192a3.986 3.986 0 00-2.028.456 1.428 1.428 0 00-.78 1.3 1.428 1.428 0 00.78 1.3 3.986 3.986 0 002.028.456zm-.024-15.332H95.167v-2.208h5.472v-1.852h2.5v1.848h5.424zm-5.208 6.4a4.765 4.765 0 00.852-.072 2.055 2.055 0 00.7-.252 1.259 1.259 0 00.468-.492 1.66 1.66 0 00.168-.792 1.66 1.66 0 00-.168-.792 1.259 1.259 0 00-.468-.492 2.055 2.055 0 00-.7-.252 4.765 4.765 0 00-.852-.072h-2.928a3.38 3.38 0 00-1.548.324 1.3 1.3 0 00-.636 1.292 1.66 1.66 0 00.168.792 1.259 1.259 0 00.468.492 2.055 2.055 0 00.7.252 4.765 4.765 0 00.848.064zm20.972 11a6.851 6.851 0 01-2.076-.3 4.818 4.818 0 01-1.624-.868 4 4 0 01-1.072-1.356 4.018 4.018 0 01-.384-1.776 4.018 4.018 0 01.384-1.776 4 4 0 011.072-1.356 4.818 4.818 0 011.628-.868 6.851 6.851 0 012.072-.3h6.48a6.851 6.851 0 012.076.3 4.818 4.818 0 011.632.864 4 4 0 011.072 1.36 4.018 4.018 0 01.384 1.776 4.018 4.018 0 01-.384 1.776 4 4 0 01-1.068 1.356 4.818 4.818 0 01-1.632.868 6.851 6.851 0 01-2.076.3zm5.572-9.94q-.672-.5-1.44-1.128t-1.532-1.284q-.768-.66-1.512-1.308t-1.348-1.224q-.576.576-1.332 1.26t-1.56 1.38q-.8.7-1.6 1.356t-1.46 1.188l-1.416-1.752q.72-.576 1.464-1.212t1.464-1.284q.72-.648 1.38-1.3t1.212-1.224a2 2 0 00.456-.72 2.659 2.659 0 00.12-.84v-2.616h2.544v2.616a2.774 2.774 0 00.12.852 1.784 1.784 0 00.456.708q1.152 1.152 2.544 2.388t2.856 2.34zm.768 7.728a3.551 3.551 0 002.028-.528 1.762 1.762 0 00.78-1.56 1.762 1.762 0 00-.78-1.56 3.551 3.551 0 00-2.028-.528h-6.192a3.551 3.551 0 00-2.028.528 1.762 1.762 0 00-.78 1.56 1.762 1.762 0 00.78 1.56 3.551 3.551 0 002.028.528zm4.752-7.056h-2.492V69.98h2.5v4.176h2.8v2.256h-2.808zm-93.408 60.96a5.007 5.007 0 01-3.252-.984 3.464 3.464 0 01-1.212-2.856 3.464 3.464 0 011.212-2.852 5.007 5.007 0 013.252-.984h3.36a5.007 5.007 0 013.256.984 3.464 3.464 0 011.212 2.856 3.464 3.464 0 01-1.212 2.852 5.007 5.007 0 01-3.252.984zm13.128 8.4h-2.5v-4.848h-13.44v-2.088h15.936zm0-7.752h-2.5v-13.3h2.5v5.544h2.808v2.256h-2.808zm-4.776-9.456H36.967v-2.208h5.472v-2.04h2.5v2.04h5.424zm-5.208 6.7a4.1 4.1 0 00.852-.084 1.939 1.939 0 00.7-.288 1.394 1.394 0 00.468-.54 1.81 1.81 0 00.168-.816 1.81 1.81 0 00-.168-.816 1.394 1.394 0 00-.468-.54 1.939 1.939 0 00-.7-.288 4.1 4.1 0 00-.852-.084h-2.928a2.943 2.943 0 00-1.548.384 1.441 1.441 0 00-.636 1.344 1.81 1.81 0 00.168.816 1.394 1.394 0 00.468.54 1.939 1.939 0 00.7.288 4.1 4.1 0 00.852.084zm32.5 10.272H61.039v-8.068h2.5v1.824h11.616v-1.824h2.5zm.024-12.96l-5.58-2.484a27.367 27.367 0 01-2.772-1.36 27.367 27.367 0 01-2.772 1.356l-5.58 2.484-1.128-1.9q.816-.36 1.74-.792t1.884-.864q.96-.432 1.884-.876t1.74-.852a1.852 1.852 0 00.7-.588 1.6 1.6 0 00.264-.948v-1.22h2.544v1.224a1.6 1.6 0 00.264.948 1.852 1.852 0 00.7.588q.816.408 1.74.852t1.884.876q.96.432 1.884.864t1.74.792zm2.016 3.192H58.999v-2.212h20.688zm-4.536 7.56v-1.876h-11.62v1.872zm31.152 2.4h-2.5v-21h2.5zm-5.884-3.316q-1.632-1.944-3.06-3.632t-2.676-3.472a45.1 45.1 0 01-2.82 3.648l-3.2 3.744-1.632-1.68q.744-.864 1.524-1.788t1.524-1.872q.744-.948 1.416-1.884t1.248-1.824a3.805 3.805 0 00.488-1.272 7.121 7.121 0 00.156-1.464v-5.424h2.544v5.352a7.508 7.508 0 00.144 1.452 3.631 3.631 0 00.48 1.26q1.152 1.752 2.592 3.6t2.9 3.576zm27.072-4.032q-2.04-1.344-4.08-2.868t-3.936-3.2q-1.9 1.68-3.912 3.2t-4.056 2.868l-1.588-1.944q.864-.552 1.788-1.212t1.836-1.356q.912-.7 1.764-1.392t1.548-1.32a4.421 4.421 0 00.984-1.188 3.013 3.013 0 00.312-1.428v-3.408h2.64v3.408a3.013 3.013 0 00.312 1.428 4.421 4.421 0 00.984 1.188q.7.624 1.548 1.32t1.784 1.392q.924.7 1.86 1.356t1.8 1.212zm2.352 5.928h-20.688v-2.208h20.688zm21.456 1.224h-16.416v-7.652h16.416zm-9.168-9.768h-9.96v-10.632h9.1v2.16h-6.628v2.088h5.4v2.112h-5.4v2.112h7.488zm6.672 7.608v-3.336h-11.424v3.336zm-2.232-6.552h-2.472v-5.352h-3.1v-2.208h3.1v-4.3h2.472zm4.728 0h-2.5v-12.1h2.5z"/><path fill="#099fee" d="M80.944 110.42h-2.5V99.98h2.5zm.48 10.608h-16.56V115.1h13.584v-1.536H64.84v-2.208h16.1v5.9H67.36v1.56h14.064zm-6.672-11.472H62.968v-9.02h11.784zm-2.5-2.208v-4.612H65.46v4.608zm24 4.464q-1.416-.912-2.772-1.932t-2.648-2.172q-.624.528-1.332 1.1t-1.464 1.152q-.756.576-1.512 1.14t-1.452 1.044l-1.56-1.748q1.512-1.056 2.868-2.064a31.783 31.783 0 002.58-2.136 1.528 1.528 0 00.5-.72 3.279 3.279 0 00.1-.84v-.408h-5.04v-2.208h5.04v-2.424h2.544v2.424h4.8v2.208h-4.8v.48a3 3 0 00.1.816 1.7 1.7 0 00.5.72q.6.576 1.188 1.056t1.2.936q.612.456 1.26.912t1.392.96zm5.928 9.216h-2.5v-5.208H86.24v-2.208h15.944zm0-8.472h-2.5V99.98h2.5v5.232h2.812v2.256h-2.808zm11.452 8.38a7.721 7.721 0 01-2.076-.264 5.121 5.121 0 01-1.632-.756 3.555 3.555 0 01-1.068-1.2 3.509 3.509 0 010-3.192 3.555 3.555 0 011.068-1.2 5.121 5.121 0 011.632-.756 7.721 7.721 0 012.076-.264h6.864a7.72 7.72 0 012.076.264 5.121 5.121 0 011.632.756 3.555 3.555 0 011.068 1.2 3.509 3.509 0 010 3.192 3.555 3.555 0 01-1.068 1.2 5.121 5.121 0 01-1.632.756 7.721 7.721 0 01-2.076.264zm-2.02-8.884a5.233 5.233 0 01-3.252-.924 3.293 3.293 0 01-1.208-2.792 3.293 3.293 0 011.212-2.8 5.233 5.233 0 013.252-.924h3.24a5.233 5.233 0 013.256.924 3.293 3.293 0 011.212 2.8 3.293 3.293 0 01-1.212 2.8 5.233 5.233 0 01-3.252.924zm13.488.648h-2.488v-2.376h-2.76v-2.136h2.76v-1.8h-2.76v-2.136h2.76V99.98h2.5zm-4.748 6.168a3.986 3.986 0 002.028-.456 1.467 1.467 0 000-2.592 3.986 3.986 0 00-2.028-.456h-6.576a3.986 3.986 0 00-2.028.456 1.467 1.467 0 000 2.592 3.986 3.986 0 002.028.456zm-.384-15.332h-13.392v-2.212h5.472v-1.848h2.5v1.848h5.424zm-5.328 6.4a4.765 4.765 0 00.852-.072 2.055 2.055 0 00.7-.252 1.259 1.259 0 00.468-.492 1.951 1.951 0 000-1.584 1.259 1.259 0 00-.468-.492 2.055 2.055 0 00-.7-.252 4.765 4.765 0 00-.852-.072h-2.808a3.38 3.38 0 00-1.548.324 1.3 1.3 0 00-.636 1.292 1.66 1.66 0 00.168.792 1.259 1.259 0 00.468.492 2.055 2.055 0 00.7.252 4.765 4.765 0 00.852.072z"/></svg>