<svg xmlns="http://www.w3.org/2000/svg" width="189" height="189" viewBox="0 0 189 189"><defs><style>.cls-2{fill:#392e4b;opacity:.67}</style></defs><g id="classes-img-03" transform="translate(-565 -464)"><path id="사각형_26715" data-name="사각형 26715" transform="translate(565 464)" fill="#f5f5f5" d="M0 0h189v189H0z"/><g id="그룹_26320" data-name="그룹 26320" transform="translate(0 1.836)"><path id="패스_56262" data-name="패스 56262" class="cls-2" d="M-24.4 15.26a2.28 2.28 0 01-.315.525q-.21.27-.57.66-.465.51-1.035 1.087t-1.335 1.283l-.975-1.005q.675-.615 1.237-1.17t1.073-1.125a6.511 6.511 0 00.6-.735 3.133 3.133 0 00.345-.645 2.911 2.911 0 00.165-.645 5.6 5.6 0 00.045-.75v-1.92h-2.97V9.53h7.335v1.29h-2.87v1.92a5.862 5.862 0 00.045.78 2.449 2.449 0 00.173.63 3.06 3.06 0 00.368.623 9.311 9.311 0 00.645.757q.48.525.983 1.005t1.176 1.065l-.975 1q-.765-.7-1.275-1.208t-.945-.967q-.315-.345-.57-.645a2.023 2.023 0 01-.345-.525zm5.79 6.84v-7.905h-2.81V12.89h2.805V8.27h1.485V22.1zm13.66-5.8v-3.02h-3.915v-1.215h3.915v-1.11h-3.915V9.74h3.915V8.27h1.455v8.03zm-7.785-7.28v5.49q.93 0 1.688-.015t1.455-.045q.7-.03 1.4-.1t1.545-.172l.15 1.23q-.81.1-1.545.18t-1.6.12q-.862.045-1.958.06t-2.6.015V9.02zm.135 7.995h9.105v5.22H-4.98V18.29h-7.62zM7.95 22.1v-4.755h-5.6v-1.26h12.69v1.26H9.45V22.1zm2.415-8.64a7.868 7.868 0 01-1.133-.66 1.979 1.979 0 01-.532-.54h-.015a1.807 1.807 0 01-.525.547 7.756 7.756 0 01-1.14.668q-.615.3-1.44.675t-1.755.735L3.24 13.67q.84-.315 1.71-.7t1.59-.77a5.16 5.16 0 00.645-.42 1.97 1.97 0 00.443-.472 1.8 1.8 0 00.247-.585 3.3 3.3 0 00.075-.743V8.75h1.485v1.23a3.3 3.3 0 00.075.742 1.843 1.843 0 00.667 1.058 4.351 4.351 0 00.653.42q.72.39 1.59.773t1.71.7l-.57 1.2q-.93-.36-1.755-.735t-1.44-.678zm15.72 1.89v-2.805H23.28a2.721 2.721 0 01-.308.945 2.786 2.786 0 01-.675.825 3.333 3.333 0 01-1.035.577 4.537 4.537 0 01-2.887-.038 3.235 3.235 0 01-1.073-.667 2.784 2.784 0 01-.645-.93 2.67 2.67 0 01-.217-1.043v-.57a2.67 2.67 0 01.217-1.042 2.784 2.784 0 01.645-.93A3.235 3.235 0 0118.375 9a4.514 4.514 0 012.88-.037 3.443 3.443 0 011.028.57 2.766 2.766 0 01.675.8 2.825 2.825 0 01.323.93h2.805v-3h1.47v7.08zm1.47.675V22.1H18.93v-6.075h1.47v1.755h5.685v-1.755zm-7.68-2.19a2.287 2.287 0 00.855-.15 1.98 1.98 0 00.63-.39 1.692 1.692 0 00.39-.54 1.484 1.484 0 00.135-.615v-.42a1.484 1.484 0 00-.135-.615 1.61 1.61 0 00-.39-.533 2.059 2.059 0 00-.63-.382 2.512 2.512 0 00-1.71 0 2.059 2.059 0 00-.63.382 1.61 1.61 0 00-.39.528 1.484 1.484 0 00-.135.615v.42a1.484 1.484 0 00.135.615 1.692 1.692 0 00.39.54 1.98 1.98 0 00.63.39 2.287 2.287 0 00.855.155zm6.21 7.005v-1.815H20.4v1.815z" transform="translate(659.998 504)"/><path id="패스_56261" data-name="패스 56261" d="M-49.488-6.24h-2.5v-11.616h2.5zm0 9.192h-16.08v-8.136h16.08zm-2.5-2.208v-3.72h-11.084v3.72zm-3.144-7.68q-.672-.5-1.452-1.128t-1.584-1.284q-.8-.66-1.56-1.308t-1.352-1.224q-.576.576-1.344 1.26t-1.6 1.38q-.828.7-1.644 1.356T-67.152-6.7l-1.416-1.752q.72-.576 1.476-1.212t1.5-1.284q.744-.648 1.428-1.3t1.236-1.224a2 2 0 00.456-.72 2.659 2.659 0 00.12-.84v-2.52h2.544v2.52a2.774 2.774 0 00.12.852 1.784 1.784 0 00.456.708q1.152 1.152 2.6 2.388t2.916 2.34zm21.336 1.272a6.191 6.191 0 01-.444 2.376 5.526 5.526 0 01-1.236 1.86 5.545 5.545 0 01-1.9 1.212A6.6 6.6 0 01-39.8.216a6.666 6.666 0 01-2.44-.432 5.545 5.545 0 01-1.9-1.212 5.381 5.381 0 01-1.224-1.86 6.342 6.342 0 01-.432-2.376v-5.856a6.342 6.342 0 01.436-2.38 5.381 5.381 0 011.224-1.86 5.545 5.545 0 011.9-1.212 6.666 6.666 0 012.448-.432 6.6 6.6 0 012.424.432 5.545 5.545 0 011.9 1.212 5.526 5.526 0 011.236 1.86 6.191 6.191 0 01.444 2.376zm-2.5-5.808a3.877 3.877 0 00-.924-2.688 3.284 3.284 0 00-2.58-1.032 3.284 3.284 0 00-2.58 1.032 3.877 3.877 0 00-.924 2.688v5.76a3.877 3.877 0 00.924 2.688 3.284 3.284 0 002.58 1.032 3.284 3.284 0 002.58-1.032 3.877 3.877 0 00.924-2.688zm7.856 14.616h-2.5v-21h2.5v4.176h3v2.232h-3v4.968h3v2.232h-3zm16.32-8.928h-11.664v-11.64h2.5v3.384h6.672v-3.384h2.5zm6.456 8.736h-16.2V-3.72h2.5V.744h13.7zm-.5-5.016h-2.5v-15.792h2.5v5.448h2.804v2.256h-2.808zm-8.448-5.928v-3.888h-6.672v3.888zm33 .432H-2.3v-2.064h20.684zM16.824 3.192H-.264V-2.52h14.112v-1.536H-.288v-2.112h16.632v5.712H2.232V1.08h14.592zM12.552-18.12a5.624 5.624 0 011.692.252 4.546 4.546 0 011.416.72A3.339 3.339 0 0116.62-16a3.365 3.365 0 01.348 1.548 3.389 3.389 0 01-.336 1.536 3.42 3.42 0 01-.932 1.156 4.263 4.263 0 01-1.4.732 5.79 5.79 0 01-1.74.252H3.528a5.79 5.79 0 01-1.74-.252A4.126 4.126 0 01.4-11.76a3.623 3.623 0 01-.94-1.152 3.292 3.292 0 01-.348-1.536A3.273 3.273 0 01-.528-16a3.525 3.525 0 01.96-1.152 4.4 4.4 0 011.4-.72 5.624 5.624 0 011.692-.252zm-.384 5.28a3.047 3.047 0 001.668-.408 1.336 1.336 0 00.636-1.2 1.329 1.329 0 00-.636-1.212 3.12 3.12 0 00-1.668-.4H3.936a3.185 3.185 0 00-1.68.4 1.323 1.323 0 00-.648 1.212 1.336 1.336 0 00.636 1.2 3.1 3.1 0 001.692.408zM45.12 3.144h-2.5v-21h2.5zm-3.936-5.952h-6.192v5.952H32.5v-5.952h-6.2v-2.256h14.88zm-1.8-7.1a5.187 5.187 0 01-1.32 1.728 6.041 6.041 0 01-1.992 1.116 7.707 7.707 0 01-2.52.4 7.707 7.707 0 01-2.52-.4 6.041 6.041 0 01-1.992-1.12 5.187 5.187 0 01-1.32-1.728 5.069 5.069 0 01-.48-2.208 5.069 5.069 0 01.48-2.208 5.187 5.187 0 011.32-1.728 6.041 6.041 0 011.992-1.116 7.707 7.707 0 012.52-.4 7.707 7.707 0 012.52.4 6.041 6.041 0 011.992 1.116 5.187 5.187 0 011.32 1.728 5.069 5.069 0 01.48 2.208 5.069 5.069 0 01-.48 2.208zm-3.12.144a3 3 0 00.816-1.036 3.01 3.01 0 00.288-1.32 3.01 3.01 0 00-.288-1.32 2.94 2.94 0 00-.8-1.02 3.928 3.928 0 00-1.212-.66 4.609 4.609 0 00-1.512-.24 4.609 4.609 0 00-1.512.24 3.928 3.928 0 00-1.212.66 2.94 2.94 0 00-.8 1.02 3.01 3.01 0 00-.288 1.32 3.01 3.01 0 00.288 1.32 2.94 2.94 0 00.8 1.02 3.928 3.928 0 001.212.66 4.609 4.609 0 001.512.24 4.609 4.609 0 001.512-.24 3.916 3.916 0 001.196-.648zm16.68 5.544a5.357 5.357 0 01-1.836-.3 4.03 4.03 0 01-1.4-.84 3.783 3.783 0 01-.9-1.308 4.342 4.342 0 01-.324-1.7 4.342 4.342 0 01.324-1.7 3.783 3.783 0 01.9-1.308 4.03 4.03 0 011.4-.84 5.357 5.357 0 011.836-.3H56.3a5.357 5.357 0 011.836.3 4.03 4.03 0 011.4.84 3.783 3.783 0 01.9 1.308 4.342 4.342 0 01.324 1.7 4.342 4.342 0 01-.324 1.7 3.783 3.783 0 01-.9 1.308 4.03 4.03 0 01-1.4.84 5.357 5.357 0 01-1.836.3zm13.128 2.708h-2.5v-16.344h2.5v6.768h2.808v2.256h-2.808zm.5 4.464h-16.2v-5.64h2.5V.744h13.7zm-5.232-16.7H47.9v-2.212h5.472v-2.3h2.5v2.3h5.472zm-5.252 7.412a2.378 2.378 0 001.548-.516 1.847 1.847 0 00.636-1.524 1.847 1.847 0 00-.636-1.524 2.378 2.378 0 00-1.548-.516H53.16a2.378 2.378 0 00-1.548.516 1.847 1.847 0 00-.636 1.524 1.847 1.847 0 00.636 1.524 2.378 2.378 0 001.548.516zm-94.536 30.168h-2.5v-2.76h-3.932v1.752h-11.544V12.7h11.544v1.488h3.936v-2.04h2.5zM-49.92 33.1a6.851 6.851 0 01-2.08-.3 4.818 4.818 0 01-1.632-.864 4 4 0 01-1.068-1.36 4.018 4.018 0 01-.38-1.776 4.018 4.018 0 01.384-1.776 4 4 0 011.068-1.356A4.818 4.818 0 01-52 24.8a6.851 6.851 0 012.076-.3h6.864a6.851 6.851 0 012.076.3 4.818 4.818 0 011.632.864 4 4 0 011.068 1.356 4.018 4.018 0 01.384 1.78 4.018 4.018 0 01-.384 1.776 4 4 0 01-1.068 1.356 4.818 4.818 0 01-1.632.864 6.851 6.851 0 01-2.076.3zm6.72-2.208a3.551 3.551 0 002.028-.528 1.762 1.762 0 00.78-1.56 1.762 1.762 0 00-.78-1.56 3.551 3.551 0 00-2.028-.528h-6.576a3.551 3.551 0 00-2.028.528 1.762 1.762 0 00-.78 1.56 1.762 1.762 0 00.78 1.56 3.551 3.551 0 002.028.528zm-4.176-10.272V14.9h-6.552v5.712zm6.432-1.728v-2.52h-3.936v2.52zm24.168 14.064h-16.608v-7.012h7.032V23.9h-9.072v-2.108h20.688V23.9h-9.072v2.04h7.032zm.528-12.5h-17.664v-2.16h3.168v-3.92h-2.688v-2.16h16.7v2.16h-2.736v3.912h3.216zm-3.024 10.3V28.1h-11.616v2.64zm-2.688-12.468v-3.912h-6.288v3.912zM4.92 22.44H-6.744V12.7H4.92zm6.192 10.8q-1.584-.5-3.288-1.092t-3.288-1.26a4.808 4.808 0 01-.732-.372q-.324-.2-.66-.444-.336.24-.66.444a4.808 4.808 0 01-.732.372q-1.584.672-3.288 1.26t-3.288 1.092l-1.224-1.92q.744-.24 1.584-.5t1.68-.552q.84-.288 1.644-.588t1.524-.612a2.461 2.461 0 001.152-.868 2.414 2.414 0 00.312-1.176h-6.672v-2.208h15.936v2.208H4.44a2.414 2.414 0 00.312 1.176 2.461 2.461 0 001.152.864q.72.312 1.524.612t1.644.588q.84.288 1.668.552t1.6.5zM2.424 20.232V14.9h-6.672v5.328zm8.448 3.528h-2.5V12.144h2.5v4.32h2.808v2.256h-2.808zm22.512 9.192H16.776v-6.624h7.032v-1.7h-9.072v-2.092h20.688v2.088h-9.072v1.7h7.032zm-.192-11.568q-1.7-.456-3.348-.984t-3.324-1.2a6.261 6.261 0 01-1.44-.792 6.665 6.665 0 01-1.464.792q-1.68.672-3.312 1.236t-3.336 1.044l-1.536-1.8q1.9-.552 3.888-1.272t3.624-1.488a1.452 1.452 0 00.66-.5 1.746 1.746 0 00.2-.84h-7.268v-2.116h7.272V11.4h2.544v2.064h7.272v2.112h-7.272a1.746 1.746 0 00.2.84 1.452 1.452 0 00.66.5 36.449 36.449 0 003.612 1.452q1.98.684 3.9 1.212zm-2.3 9.48v-2.5h-11.62v2.5zM44.4 33.1a7.721 7.721 0 01-2.076-.264 5.121 5.121 0 01-1.632-.756 3.555 3.555 0 01-1.068-1.2 3.509 3.509 0 010-3.192 3.555 3.555 0 011.068-1.2 5.121 5.121 0 011.632-.756 7.721 7.721 0 012.076-.264h6.864a7.721 7.721 0 012.076.264 5.121 5.121 0 011.632.756 3.555 3.555 0 011.068 1.2 3.509 3.509 0 010 3.192 3.555 3.555 0 01-1.068 1.2 5.121 5.121 0 01-1.632.756 7.721 7.721 0 01-2.076.264zm-2.016-8.88a5.233 5.233 0 01-3.252-.924 3.293 3.293 0 01-1.212-2.8 3.293 3.293 0 011.212-2.8 5.233 5.233 0 013.252-.924h3.24a5.233 5.233 0 013.252.924 3.293 3.293 0 011.212 2.8 3.293 3.293 0 01-1.212 2.8 5.233 5.233 0 01-3.252.924zm13.488.648h-2.5v-2.38h-2.76v-2.136h2.76v-1.8h-2.76v-2.136h2.76v-4.272h2.5zm-4.752 6.164a3.986 3.986 0 002.028-.456 1.467 1.467 0 000-2.592 3.986 3.986 0 00-2.028-.456h-6.576a3.986 3.986 0 00-2.028.456 1.467 1.467 0 000 2.592 3.986 3.986 0 002.028.456zM50.736 15.7H37.344v-2.212h5.472V11.64h2.5v1.848h5.424zm-5.328 6.4a4.765 4.765 0 00.852-.072 2.055 2.055 0 00.7-.252 1.259 1.259 0 00.468-.492 1.951 1.951 0 000-1.584 1.259 1.259 0 00-.468-.492 2.055 2.055 0 00-.7-.252 4.765 4.765 0 00-.852-.072H42.6a3.38 3.38 0 00-1.548.324 1.3 1.3 0 00-.636 1.284 1.66 1.66 0 00.168.792 1.259 1.259 0 00.468.492 2.055 2.055 0 00.7.252 4.765 4.765 0 00.852.072z" transform="translate(659.568 558)" fill="#333"/><path id="패스_56260" data-name="패스 56260" d="M-27.408 62.952h-16.08V54.48h2.5v1.9H-29.9v-1.9h2.5zm-5.856-9.888q-.7-.48-1.44-1.008t-1.488-1.068q-.744-.54-1.464-1.092T-39 48.84q-.624.528-1.392 1.116t-1.584 1.176q-.816.588-1.632 1.152T-45.1 53.3l-1.368-1.752q1.468-1.028 2.92-2.084a32.758 32.758 0 002.676-2.16 1.528 1.528 0 00.5-.72 3.279 3.279 0 00.1-.84V44.9h-5.04v-2.2h12.5v2.2h-4.92v.936a3.14 3.14 0 00.1.828 1.541 1.541 0 00.5.708q1.224 1.056 2.5 2.028t2.712 1.98zm5.856.36h-2.5v-11.28h2.5zm-2.5 7.32v-2.16h-11.084v2.16zM-3.7 53.3h-9.072v1.968h2.448a7.721 7.721 0 012.076.264 4.97 4.97 0 011.632.768 3.63 3.63 0 011.068 1.224 3.414 3.414 0 01.388 1.636 3.414 3.414 0 01-.384 1.632 3.63 3.63 0 01-1.068 1.224 4.97 4.97 0 01-1.632.768 7.721 7.721 0 01-2.076.264h-7.44a7.721 7.721 0 01-2.076-.264 4.97 4.97 0 01-1.632-.768 3.63 3.63 0 01-1.068-1.224 3.414 3.414 0 01-.384-1.632 3.414 3.414 0 01.384-1.632 3.63 3.63 0 011.068-1.228 4.97 4.97 0 011.632-.768 7.721 7.721 0 012.076-.264h2.448V53.3h-9.072v-2.2H-3.7zm-1.9-2.76q-3.648-1.152-5.712-2a22.358 22.358 0 01-2.76-1.284 21.648 21.648 0 01-2.76 1.272q-2.064.84-5.712 2.016l-.888-1.992q1.68-.552 3.576-1.26a38.53 38.53 0 003.556-1.524 1.727 1.727 0 00.66-.528 1.662 1.662 0 00.3-.864h-7.128v-2.16h16.852v2.16h-7.176a1.662 1.662 0 00.3.864 1.727 1.727 0 00.66.528 38.53 38.53 0 003.552 1.524q1.9.708 3.576 1.26zm-4.872 10.3a4.485 4.485 0 002.028-.4 1.339 1.339 0 00.78-1.284 1.339 1.339 0 00-.78-1.284 4.485 4.485 0 00-2.028-.4h-7.152a4.485 4.485 0 00-2.028.4 1.339 1.339 0 00-.78 1.284 1.339 1.339 0 00.78 1.284 4.485 4.485 0 002.028.4zm29.208 1.68h-2.464V52.272h-3.336a3.076 3.076 0 01-.156.276 2.866 2.866 0 01-.18.252q-1.512 1.992-3.24 3.96t-3.5 3.96L4.152 59.3q1.656-1.868 3.248-3.728t3.012-3.732a2.866 2.866 0 00.18-.252 3.075 3.075 0 00.156-.276H4.512V49.1h6.7v-3.7h-6.34v-2.2h8.784v5.88q0 .264-.012.492t-.036.444h2.664v-7.632h2.472zm5.016.6h-2.5V42.144h2.5zM45 63.144h-2.5V51.96h-3.572v2.376a6.191 6.191 0 01-.444 2.376 5.434 5.434 0 01-3.132 3.072 6.6 6.6 0 01-2.424.432 6.666 6.666 0 01-2.448-.432 5.545 5.545 0 01-1.9-1.212 5.381 5.381 0 01-1.224-1.86 6.342 6.342 0 01-.432-2.376V48.48a6.342 6.342 0 01.436-2.38 5.381 5.381 0 011.224-1.86 5.545 5.545 0 011.9-1.212 6.666 6.666 0 012.448-.432 6.6 6.6 0 012.424.432 5.434 5.434 0 013.128 3.072 6.191 6.191 0 01.444 2.376V49.7H42.5v-7.56H45zm-8.568-14.616a3.877 3.877 0 00-.924-2.688 3.284 3.284 0 00-2.58-1.032 3.284 3.284 0 00-2.58 1.032 3.877 3.877 0 00-.924 2.688v5.76a3.877 3.877 0 00.924 2.688 3.284 3.284 0 002.58 1.032 3.284 3.284 0 002.58-1.032 3.877 3.877 0 00.924-2.688z" transform="translate(660.464 558)" fill="#099fee"/><path id="패스_56380" data-name="패스 56380" class="cls-2" d="M-63.968-5.325h1.41V-9.66h-1.32v-1.215h7.545v1.215h-1.305v4.23q.48-.03.908-.06t.908-.075l.1 1.185q-.7.06-1.4.105t-1.62.083q-.923.038-2.175.052t-3.053.03zm2.76 4.665a1.89 1.89 0 01.293-1.012 2.651 2.651 0 01.84-.825 4.412 4.412 0 011.335-.548 7.413 7.413 0 011.778-.195 7.413 7.413 0 011.778.195 4.412 4.412 0 011.334.545 2.651 2.651 0 01.84.825 1.89 1.89 0 01.292 1.015v.585A1.89 1.89 0 01-53.01.938a2.581 2.581 0 01-.84.818 4.541 4.541 0 01-1.335.54 7.413 7.413 0 01-1.778.2 7.413 7.413 0 01-1.778-.2 4.541 4.541 0 01-1.335-.54 2.581 2.581 0 01-.84-.818 1.89 1.89 0 01-.293-1.013zm6.96-2.76v-2.685h-1.965V-7.38h1.965v-.78h-1.965v-1.275h1.965v-2.3h1.47v8.31zm.075 2.865a.919.919 0 00-.195-.54 1.692 1.692 0 00-.555-.472A3.5 3.5 0 00-55.8-1.9a4.869 4.869 0 00-1.162-.127 4.869 4.869 0 00-1.163.127 3.5 3.5 0 00-.877.33 1.692 1.692 0 00-.555.472.919.919 0 00-.195.54V-.2a.919.919 0 00.195.54A1.692 1.692 0 00-59 .818a3.5 3.5 0 00.877.33 4.869 4.869 0 001.163.127 4.869 4.869 0 001.16-.127 3.5 3.5 0 00.878-.33 1.692 1.692 0 00.555-.473.919.919 0 00.195-.54zm-4.89-4.815v-4.29h-2.07v4.335zm11.28 7.56v-3.78h7.11v-1.335h-7.185v-1.23h8.64V-.39h-7.11V.96h7.5v1.23zm7.1-7.035v-6.885h1.47v6.885zm-6.06-6.69a4.018 4.018 0 011.485.255 3.4 3.4 0 011.08.66 2.682 2.682 0 01.653.915 2.582 2.582 0 01.217 1.02v.6a2.616 2.616 0 01-.222 1.035 2.682 2.682 0 01-.653.915 3.3 3.3 0 01-1.08.653 4.127 4.127 0 01-1.485.247 4.127 4.127 0 01-1.485-.247 3.3 3.3 0 01-1.08-.653 2.682 2.682 0 01-.653-.915 2.616 2.616 0 01-.218-1.035v-.6a2.582 2.582 0 01.218-1.02 2.682 2.682 0 01.653-.915 3.4 3.4 0 011.08-.66 4.018 4.018 0 011.485-.255zm0 5.025a2.4 2.4 0 00.855-.142 1.952 1.952 0 00.63-.375 1.61 1.61 0 00.39-.532 1.484 1.484 0 00.135-.615V-8.6a1.484 1.484 0 00-.135-.615 1.534 1.534 0 00-.39-.525 2.032 2.032 0 00-.63-.368 2.4 2.4 0 00-.855-.142 2.515 2.515 0 00-.855.135 1.854 1.854 0 00-.63.368 1.61 1.61 0 00-.39.533 1.484 1.484 0 00-.135.615v.42a1.484 1.484 0 00.135.615 1.61 1.61 0 00.39.532 1.952 1.952 0 00.63.375 2.4 2.4 0 00.85.147zm11.895 2.4A13.049 13.049 0 00-34.4-.72a9.939 9.939 0 001.6 3.27h-1.38a8.8 8.8 0 01-1.663-3.03 12.15 12.15 0 01-.54-3.705v-.6a12.006 12.006 0 01.54-3.69 8.821 8.821 0 011.665-3.015h1.38a9.814 9.814 0 00-1.582 3.157 12.606 12.606 0 00-.472 3.473zm5.445 6.3V-1h7.53v-.81h-7.6v-1.2h9.06V.15h-7.59v.84h8v1.2zm2-9.315a4.581 4.581 0 01-2.5-.577A1.713 1.713 0 01-30.8-9.18v-.39a1.535 1.535 0 01.233-.825 2.085 2.085 0 01.667-.653 3.461 3.461 0 011.065-.427 6.172 6.172 0 011.425-.15 4.713 4.713 0 012.5.585 1.7 1.7 0 01.892 1.47v.39a1.713 1.713 0 01-.897 1.48 4.581 4.581 0 01-2.498.575zm5.52 3.6v-.465h-2.925v-1.14h2.925v-6.6h1.47v8.205zm-6.405-.03v-1.86q-.735.03-1.575.03h-1.845V-6.57q1.635 0 2.842-.015t2.213-.053q1.005-.037 1.9-.1t1.882-.15l.12 1.14q-.99.105-1.943.173t-2.122.112v1.905zm.885-4.815a3.253 3.253 0 001.507-.262q.473-.263.472-.623v-.24q0-.36-.472-.615a3.336 3.336 0 00-1.507-.255 3.336 3.336 0 00-1.508.255q-.473.255-.472.615v.24q0 .36.472.623a3.253 3.253 0 001.498.262zM-12.728 2.1v-4.755h-5.6v-1.26h12.69v1.26h-5.6V2.1zm2.415-8.64a7.868 7.868 0 01-1.133-.66 1.979 1.979 0 01-.532-.54h-.015a1.807 1.807 0 01-.525.548 7.756 7.756 0 01-1.14.668q-.615.3-1.44.675t-1.755.735l-.585-1.215q.84-.315 1.71-.7t1.59-.773a5.16 5.16 0 00.645-.42 1.97 1.97 0 00.443-.472 1.8 1.8 0 00.247-.585 3.3 3.3 0 00.075-.742v-1.23h1.485v1.23a3.3 3.3 0 00.075.742 1.9 1.9 0 00.24.585 1.9 1.9 0 00.427.472 4.351 4.351 0 00.653.42q.72.39 1.59.773t1.71.7l-.57 1.2q-.93-.36-1.755-.735t-1.44-.676zm11.445-4.98l-4.59 13.44h-1.425l4.575-13.44zm9.66 10.74q-.93.09-1.77.157T7.2-.51q-.983.045-2.243.068t-3.03.022v-1.26h2.01q.9 0 1.665-.03v-1.365a3.88 3.88 0 01-1.132-.3 3.16 3.16 0 01-.848-.54 2.23 2.23 0 01-.525-.7 1.83 1.83 0 01-.18-.787v-.57a1.816 1.816 0 01.232-.878 2.416 2.416 0 01.66-.758A3.332 3.332 0 014.86-8.13a4.684 4.684 0 011.4-.195 4.684 4.684 0 011.4.195 3.332 3.332 0 011.05.525 2.416 2.416 0 01.66.758 1.816 1.816 0 01.233.878v.57a1.987 1.987 0 01-.663 1.446 3.366 3.366 0 01-1.868.847v1.35q1-.03 1.852-.1T10.672-2zm.69 2.88v-13.83h1.47v5.53h2.07v1.29h-2.07V2.1zm-1.32-11h-7.95v-1.27h3.315v-1.665H7v1.665h3.165zm-3.9 4.64a2.233 2.233 0 001.41-.39 1.119 1.119 0 00.5-.885v-.3a1.115 1.115 0 00-.5-.885 2.238 2.238 0 00-1.4-.39 2.233 2.233 0 00-1.41.39 1.119 1.119 0 00-.495.885v.3a1.115 1.115 0 00.5.885 2.238 2.238 0 001.395.39zM26.377-6.3h-3.75v1.41h5.595v1.26h-12.69v-1.26h5.6V-6.3h-3.75v-4.95h9zm-9.21 3.99h9.285v4.545h-1.485V-1.05h-7.8zm7.74-7.7h-6.06v2.46h6.06zM31.1-4.86a12.606 12.606 0 00-.472-3.473 9.814 9.814 0 00-1.583-3.158h1.38a8.822 8.822 0 011.665 3.015 12.006 12.006 0 01.54 3.69v.6a12.15 12.15 0 01-.54 3.705 8.8 8.8 0 01-1.665 3.03h-1.38A9.939 9.939 0 0030.653-.72a13.049 13.049 0 00.45-3.39z" transform="translate(676.114 504)"/></g></g></svg>