<svg xmlns="http://www.w3.org/2000/svg" width="189" height="189" viewBox="0 0 189 189"><path fill="#f2f4fc" d="M0 0h189v189H0z"/><path fill="#392e4b" d="M30.999 43.511h1.41v-4.335h-1.32v-1.215h7.545v1.215h-1.305v4.23q.48-.03.908-.06t.908-.075l.1 1.185q-.7.06-1.4.105t-1.62.083q-.923.038-2.175.052t-3.053.03zm2.76 4.665a1.89 1.89 0 01.293-1.012 2.651 2.651 0 01.84-.825 4.412 4.412 0 011.335-.548 7.413 7.413 0 011.778-.195 7.413 7.413 0 011.778.195 4.412 4.412 0 011.334.545 2.651 2.651 0 01.84.825 1.89 1.89 0 01.292 1.015v.585a1.89 1.89 0 01-.292 1.013 2.581 2.581 0 01-.84.818 4.541 4.541 0 01-1.335.54 7.413 7.413 0 01-1.778.2 7.413 7.413 0 01-1.778-.2 4.541 4.541 0 01-1.335-.54 2.581 2.581 0 01-.84-.818 1.89 1.89 0 01-.293-1.013zm6.96-2.76v-2.685h-1.965v-1.275h1.965v-.78h-1.965v-1.275h1.965v-2.3h1.47v8.31zm.075 2.865a.919.919 0 00-.195-.54 1.692 1.692 0 00-.555-.472 3.5 3.5 0 00-.877-.333 4.869 4.869 0 00-1.162-.127 4.869 4.869 0 00-1.163.127 3.5 3.5 0 00-.877.33 1.692 1.692 0 00-.555.472.919.919 0 00-.195.54v.358a.919.919 0 00.195.54 1.692 1.692 0 00.557.478 3.5 3.5 0 00.877.33 4.869 4.869 0 001.163.127 4.869 4.869 0 001.16-.127 3.5 3.5 0 00.878-.33 1.692 1.692 0 00.555-.473.919.919 0 00.195-.54zm-4.89-4.815v-4.29h-2.07v4.335zm11.28 7.56v-3.78h7.11v-1.335h-7.185v-1.23h8.64v3.765h-7.11v1.35h7.5v1.23zm7.1-7.035v-6.885h1.47v6.885zm-6.06-6.69a4.018 4.018 0 011.485.255 3.4 3.4 0 011.08.66 2.682 2.682 0 01.653.915 2.582 2.582 0 01.217 1.02v.6a2.616 2.616 0 01-.222 1.035 2.682 2.682 0 01-.653.915 3.3 3.3 0 01-1.08.653 4.127 4.127 0 01-1.485.247 4.127 4.127 0 01-1.485-.247 3.3 3.3 0 01-1.08-.653 2.682 2.682 0 01-.653-.915 2.616 2.616 0 01-.218-1.035v-.6a2.582 2.582 0 01.218-1.02 2.682 2.682 0 01.653-.915 3.4 3.4 0 011.08-.66 4.018 4.018 0 011.485-.255zm0 5.025a2.4 2.4 0 00.855-.142 1.952 1.952 0 00.63-.375 1.61 1.61 0 00.39-.532 1.484 1.484 0 00.135-.615v-.426a1.484 1.484 0 00-.135-.615 1.534 1.534 0 00-.39-.525 2.032 2.032 0 00-.63-.368 2.4 2.4 0 00-.855-.142 2.515 2.515 0 00-.855.135 1.854 1.854 0 00-.63.368 1.61 1.61 0 00-.39.533 1.484 1.484 0 00-.135.615v.42a1.484 1.484 0 00.135.615 1.61 1.61 0 00.39.532 1.952 1.952 0 00.63.375 2.4 2.4 0 00.85.147zm11.895 2.4a13.049 13.049 0 00.448 3.39 9.939 9.939 0 001.6 3.27h-1.38a8.8 8.8 0 01-1.663-3.03 12.15 12.15 0 01-.54-3.705v-.6a12.006 12.006 0 01.54-3.69 8.821 8.821 0 011.665-3.015h1.38a9.814 9.814 0 00-1.582 3.157 12.606 12.606 0 00-.472 3.473zm5.445 6.3v-3.19h7.53v-.81h-7.6v-1.2h9.06v3.16h-7.59v.84h8v1.2zm2-9.315a4.581 4.581 0 01-2.5-.577 1.713 1.713 0 01-.897-1.478v-.39a1.535 1.535 0 01.233-.825 2.085 2.085 0 01.667-.653 3.461 3.461 0 011.065-.427 6.172 6.172 0 011.425-.15 4.713 4.713 0 012.5.585 1.7 1.7 0 01.892 1.47v.39a1.713 1.713 0 01-.897 1.48 4.581 4.581 0 01-2.498.575zm5.52 3.6v-.465h-2.925v-1.14h2.925v-6.6h1.47v8.205zm-6.405-.03v-1.86q-.735.03-1.575.03h-1.845v-1.185q1.635 0 2.842-.015t2.213-.053q1.005-.037 1.9-.1t1.882-.15l.12 1.14q-.99.105-1.943.173t-2.122.112v1.905zm.885-4.815a3.253 3.253 0 001.507-.262q.473-.263.472-.623v-.24q0-.36-.472-.615a3.336 3.336 0 00-1.507-.255 3.336 3.336 0 00-1.508.255q-.473.255-.472.615v.24q0 .36.472.623a3.253 3.253 0 001.498.262zm14.675 10.47v-4.755h-5.6v-1.26h12.69v1.26h-5.6v4.755zm2.415-8.64a7.868 7.868 0 01-1.133-.66 1.979 1.979 0 01-.532-.54h-.015a1.807 1.807 0 01-.525.548 7.756 7.756 0 01-1.14.668q-.615.3-1.44.675t-1.755.735l-.585-1.215q.84-.315 1.71-.7t1.59-.773a5.16 5.16 0 00.645-.42 1.97 1.97 0 00.443-.472 1.8 1.8 0 00.247-.585 3.3 3.3 0 00.075-.742v-1.23h1.485v1.23a3.3 3.3 0 00.075.742 1.9 1.9 0 00.24.585 1.9 1.9 0 00.427.472 4.351 4.351 0 00.653.42q.72.39 1.59.773t1.71.7l-.57 1.2q-.93-.36-1.755-.735t-1.44-.676zm11.445-4.98l-4.59 13.44h-1.425l4.575-13.44zm9.66 10.74q-.93.09-1.77.157t-1.822.113q-.983.045-2.243.068t-3.03.022v-1.26h2.01q.9 0 1.665-.03v-1.365a3.88 3.88 0 01-1.132-.3 3.16 3.16 0 01-.848-.54 2.23 2.23 0 01-.525-.7 1.83 1.83 0 01-.18-.787v-.57a1.816 1.816 0 01.232-.878 2.416 2.416 0 01.66-.758 3.332 3.332 0 011.051-.522 4.684 4.684 0 011.4-.195 4.684 4.684 0 011.4.195 3.332 3.332 0 011.05.525 2.416 2.416 0 01.66.758 1.816 1.816 0 01.233.878v.57a1.987 1.987 0 01-.663 1.446 3.366 3.366 0 01-1.868.847v1.35q1-.03 1.852-.1t1.748-.144zm.69 2.88v-13.83h1.47v5.53h2.07v1.29h-2.07v7.01zm-1.32-11h-7.95v-1.27h3.315v-1.665h1.473v1.665h3.165zm-3.9 4.64a2.233 2.233 0 001.41-.39 1.119 1.119 0 00.5-.885v-.3a1.115 1.115 0 00-.5-.885 2.238 2.238 0 00-1.4-.39 2.233 2.233 0 00-1.41.39 1.119 1.119 0 00-.495.885v.3a1.115 1.115 0 00.5.885 2.238 2.238 0 001.395.39zm20.115-2.04h-3.75v1.41h5.595v1.26h-12.69v-1.26h5.6v-1.41h-3.75v-4.95h9zm-9.21 3.99h9.285v4.545h-1.485v-3.285h-7.8zm7.74-7.7h-6.06v2.46h6.06zm6.193 5.15a12.606 12.606 0 00-.472-3.473 9.814 9.814 0 00-1.583-3.158h1.38a8.822 8.822 0 011.665 3.015 12.006 12.006 0 01.54 3.69v.6a12.15 12.15 0 01-.54 3.705 8.8 8.8 0 01-1.665 3.03h-1.38a9.939 9.939 0 001.608-3.269 13.049 13.049 0 00.45-3.39zm12.483 6.96v-4.755h-5.6v-1.26h12.69v1.26h-5.59v4.755zm2.417-8.64a7.868 7.868 0 01-1.132-.66 1.979 1.979 0 01-.533-.54h-.015a1.807 1.807 0 01-.525.548 7.756 7.756 0 01-1.14.668q-.615.3-1.44.675t-1.755.735l-.587-1.216q.84-.315 1.71-.7t1.59-.773a5.16 5.16 0 00.645-.42 1.97 1.97 0 00.442-.472 1.8 1.8 0 00.248-.585 3.3 3.3 0 00.075-.742v-1.23h1.485v1.23a3.3 3.3 0 00.075.742 1.9 1.9 0 00.24.585 1.9 1.9 0 00.427.472 4.351 4.351 0 00.653.42q.72.39 1.59.773t1.71.7l-.57 1.2q-.93-.36-1.755-.735t-1.438-.675zm15.72 1.89v-2.8h-2.807a2.721 2.721 0 01-.307.945 2.786 2.786 0 01-.675.825 3.333 3.333 0 01-1.035.577 4.1 4.1 0 01-1.388.218 4.063 4.063 0 01-1.5-.255 3.235 3.235 0 01-1.072-.668 2.784 2.784 0 01-.645-.93 2.67 2.67 0 01-.217-1.043v-.57a2.67 2.67 0 01.216-1.049 2.784 2.784 0 01.645-.93 3.235 3.235 0 011.072-.67 4.063 4.063 0 011.5-.255 4.038 4.038 0 011.38.218 3.443 3.443 0 011.028.57 2.766 2.766 0 01.675.8 2.824 2.824 0 01.323.93h2.805v-3h1.47v7.08zm1.47.675v6.075h-8.627v-6.075H151v1.755h5.685v-1.755zm-7.68-2.19a2.287 2.287 0 00.855-.15 1.98 1.98 0 00.63-.39 1.692 1.692 0 00.39-.54 1.484 1.484 0 00.135-.615v-.42a1.484 1.484 0 00-.135-.615 1.61 1.61 0 00-.39-.533 2.059 2.059 0 00-.63-.382 2.287 2.287 0 00-.855-.15 2.287 2.287 0 00-.855.15 2.058 2.058 0 00-.63.382 1.61 1.61 0 00-.39.533 1.484 1.484 0 00-.135.615v.42a1.484 1.484 0 00.135.615 1.692 1.692 0 00.39.54 1.98 1.98 0 00.63.39 2.287 2.287 0 00.852.15zm6.21 7v-1.81H151v1.815z" opacity=".67"/><path fill="#333" d="M55.135 90.788h-15.7v-7.512h2.5v1.56h10.7v-1.56h2.5zM42.007 81.86a5.44 5.44 0 01-3.252-.876 3.161 3.161 0 01-1.212-2.748 3.161 3.161 0 011.212-2.748 5.44 5.44 0 013.252-.876h3.36a5.44 5.44 0 013.252.876 3.161 3.161 0 011.212 2.748 3.161 3.161 0 01-1.208 2.748 5.44 5.44 0 01-3.252.876zm13.128.6h-2.5V69.98h2.5v5.256h2.808v2.256h-2.808zm-4.776-8.856H36.967v-2.208h5.472v-1.92h2.5v1.92h5.424zm-5.208 6.144a7.1 7.1 0 00.852-.048 1.871 1.871 0 00.7-.216 1.2 1.2 0 00.468-.468 1.588 1.588 0 00.168-.78 1.588 1.588 0 00-.168-.78 1.118 1.118 0 00-.468-.456 2.221 2.221 0 00-.7-.216 5.7 5.7 0 00-.852-.06h-2.928a3.882 3.882 0 00-1.548.276 1.2 1.2 0 00-.636 1.236 1.588 1.588 0 00.168.78 1.2 1.2 0 00.468.468 1.871 1.871 0 00.7.216 7.1 7.1 0 00.852.048zm7.488 8.976V86.9h-10.7v1.824zm18.768-13.728a5.061 5.061 0 01-.108 1.1 2.481 2.481 0 01-.348.84 2.651 2.651 0 01-.624.648 4.457 4.457 0 01-.96.528q-2.112.912-4.464 1.848t-4.632 1.776l-.96-1.92 2.244-.876q1.14-.444 2.256-.888t2.16-.888q1.044-.444 1.956-.876a1.768 1.768 0 00.768-.612 2.132 2.132 0 00.216-1.092v-1.848h-8.588v-2.2h11.088zm6.648 16.032h-2.5v-5.692h-13.82v-2.2h16.32zm0-8.952h-2.5v-2.568h-4.2v-2.184h4.2v-2.712h-3.212v-2.184h3.216V69.98h2.5zm23.712-1.8H81.079v-2.064h20.688zm-1.56 10.752H83.123v-5.712h14.108V83.78H83.095v-2.112h16.628v5.712H85.615v1.536h14.592zm-4.272-21.312a5.624 5.624 0 011.692.252 4.546 4.546 0 011.416.72 3.339 3.339 0 01.96 1.148 3.365 3.365 0 01.348 1.548 3.389 3.389 0 01-.336 1.536 3.42 3.42 0 01-.936 1.152 4.263 4.263 0 01-1.4.732 5.79 5.79 0 01-1.74.252h-9.028a5.79 5.79 0 01-1.74-.252 4.126 4.126 0 01-1.392-.732 3.623 3.623 0 01-.936-1.152 3.292 3.292 0 01-.348-1.536 3.273 3.273 0 01.36-1.548 3.525 3.525 0 01.96-1.152 4.4 4.4 0 011.4-.72 5.624 5.624 0 011.692-.252zm-.384 5.28a3.047 3.047 0 001.672-.408 1.336 1.336 0 00.636-1.2 1.329 1.329 0 00-.636-1.212 3.12 3.12 0 00-1.668-.4h-8.232a3.185 3.185 0 00-1.68.4 1.323 1.323 0 00-.648 1.212 1.336 1.336 0 00.636 1.2 3.1 3.1 0 001.692.408zm32.952 15.984h-2.5v-21h2.5zm-3.936-5.952h-6.192v5.952h-2.5v-5.952h-6.188v-2.256h14.88zm-1.8-7.1a5.187 5.187 0 01-1.32 1.728 6.041 6.041 0 01-1.992 1.116 7.707 7.707 0 01-2.52.4 7.707 7.707 0 01-2.52-.4 6.041 6.041 0 01-1.992-1.12 5.187 5.187 0 01-1.32-1.728 5.069 5.069 0 01-.48-2.208 5.069 5.069 0 01.48-2.208 5.187 5.187 0 011.32-1.728 6.041 6.041 0 011.992-1.116 7.707 7.707 0 012.52-.4 7.707 7.707 0 012.52.4 6.041 6.041 0 011.992 1.116 5.187 5.187 0 011.32 1.728 5.069 5.069 0 01.48 2.208 5.069 5.069 0 01-.48 2.208zm-3.12.144a3 3 0 00.816-1.036 3.01 3.01 0 00.288-1.32 3.01 3.01 0 00-.288-1.32 2.94 2.94 0 00-.8-1.02 3.928 3.928 0 00-1.212-.66 4.609 4.609 0 00-1.512-.24 4.609 4.609 0 00-1.516.24 3.928 3.928 0 00-1.212.66 2.94 2.94 0 00-.8 1.02 3.01 3.01 0 00-.288 1.32 3.01 3.01 0 00.288 1.32 2.94 2.94 0 00.8 1.02 3.928 3.928 0 001.212.66 4.609 4.609 0 001.512.24 4.609 4.609 0 001.512-.24 3.916 3.916 0 001.2-.648zm16.676 5.54a5.357 5.357 0 01-1.836-.3 4.03 4.03 0 01-1.4-.84 3.783 3.783 0 01-.9-1.308 4.342 4.342 0 01-.324-1.7 4.342 4.342 0 01.324-1.7 3.783 3.783 0 01.9-1.308 4.03 4.03 0 011.4-.84 5.357 5.357 0 011.836-.3h3.36a5.357 5.357 0 011.836.3 4.03 4.03 0 011.4.84 3.783 3.783 0 01.9 1.308 4.342 4.342 0 01.324 1.7 4.342 4.342 0 01-.324 1.7 3.783 3.783 0 01-.9 1.308 4.03 4.03 0 01-1.4.84 5.357 5.357 0 01-1.836.3zm13.132 2.712h-2.5V69.98h2.5v6.768h2.808v2.256h-2.808zm.5 4.464h-16.2v-5.64h2.5v3.432h13.7zm-5.232-16.704h-13.436v-2.208h5.472v-2.3h2.5v2.3h5.464zm-5.252 7.416a2.378 2.378 0 001.552-.516 1.847 1.847 0 00.636-1.524 1.847 1.847 0 00-.636-1.524 2.378 2.378 0 00-1.548-.516h-2.932a2.378 2.378 0 00-1.548.516 1.847 1.847 0 00-.636 1.524 1.847 1.847 0 00.636 1.524 2.378 2.378 0 001.548.516zm-84.048 35.784q-1.3-1.656-2.352-3.12t-2.016-3.1q-1.008 1.656-2.184 3.324t-2.52 3.372l-1.776-1.44q.648-.816 1.3-1.68t1.236-1.728q.588-.864 1.116-1.7t.96-1.608a4.544 4.544 0 00.468-1.428 9.837 9.837 0 00.132-1.6v-3.332h-4.008v-2.208h10.176v2.208h-3.672v3.336a9.837 9.837 0 00.132 1.6 4.544 4.544 0 00.468 1.428 32.652 32.652 0 001.86 3q1.02 1.464 2.316 3.12zm4.944 3.072h-2.472v-11.664h-3.384v-2.208h3.384v-6.264h2.472zm4.656.6h-2.5V99.98h2.5zm22.08 0h-2.5v-10.944h-2.88v10.344h-2.472V100.22h2.472v7.536h2.88V99.98h2.5zm-9.288-3.72h-9.72v-16.2h9.072v2.208h-6.576v11.784h7.224zm31.992 2.328H89.123v-2.208h9.26v-3.936h-7.06v-7.56h13.78v-3.144h-13.78v-2.208h16.276v7.512H93.823v3.192h14.208v2.208h-7.108v3.936h8.88zm23.4-6.48h-15.504v-2.208h6.744v-2.424h-5.3v-8.16h12.5v2.16h-10.008v3.84h10.484v2.16h-5.132v2.424h6.216zm3.96 7.7h-16.444V114.5h2.5v4.08h13.944zm-.5-4.68h-2.5V99.98h2.5z"/><path fill="#099fee" d="M72.712 141.812q-1.416-.912-2.772-1.932t-2.652-2.172q-.624.528-1.332 1.1t-1.464 1.152q-.756.576-1.512 1.14t-1.452 1.044l-1.556-1.748q1.512-1.056 2.868-2.064a31.783 31.783 0 002.58-2.136 1.528 1.528 0 00.5-.72 3.279 3.279 0 00.1-.84v-.408h-5.048v-2.208h5.04v-2.424h2.544v2.424h5.04v2.208h-5.04v.48a3 3 0 00.1.816 1.7 1.7 0 00.5.72q.6.576 1.188 1.056t1.2.936q.612.456 1.26.912t1.392.96zm6.6 9.264q-1.584-.6-3.4-1.356t-3.4-1.5a5.676 5.676 0 01-.732-.408q-.324-.216-.66-.456-.336.24-.66.456a5.676 5.676 0 01-.732.408q-1.584.744-3.4 1.5t-3.4 1.356l-1.224-1.92q.744-.288 1.632-.648t1.788-.744q.9-.384 1.74-.768t1.536-.72a2.616 2.616 0 001.152-.948 2.652 2.652 0 00.264-1.26v-.7h2.592v.7a4.364 4.364 0 00.048.684 1.6 1.6 0 00.2.564 2.073 2.073 0 00.432.5 3.212 3.212 0 00.732.456q.672.336 1.524.72t1.752.768q.9.384 1.776.744t1.644.648zM79 143.612h-2.5v-5.952h-3.908v-2.208h3.912v-5.472h2.5zm22.56 7.416H85V145.1h13.584v-1.536H84.972v-2.208h16.1v5.9H87.496v1.56h14.064zm-.48-10.608h-2.496v-3.768h-5.256a4.708 4.708 0 01-.936.5l-4.464 1.784q-2.352.936-4.632 1.728l-.96-1.92q1.1-.384 2.244-.828l2.256-.876q1.116-.432 2.16-.864t1.956-.84a1.6 1.6 0 00.768-.6 2.2 2.2 0 00.216-1.1v-.9h-8.592v-2.2h11.088v3.72a.789.789 0 01-.024.192h4.176v-4.468h2.5zm23.712 1.2h-20.688v-2.208h20.688zm-1.992 9.168h-16.728v-7.252H122.8zm-2.5-2.112v-3.024h-11.728v3.024zm-9.812-10.776a6.671 6.671 0 01-2.016-.288 4.8 4.8 0 01-1.572-.816 3.788 3.788 0 01-1.02-4.536 3.536 3.536 0 011.02-1.26 4.94 4.94 0 011.572-.8 6.671 6.671 0 012.016-.288h7.92a6.671 6.671 0 012.016.288 4.94 4.94 0 011.572.8 3.536 3.536 0 011.02 1.26 3.695 3.695 0 01-1.02 4.536 4.8 4.8 0 01-1.572.816 6.671 6.671 0 01-2.016.288zm7.7-2.112a3.351 3.351 0 002-.5 1.633 1.633 0 00.684-1.392 1.6 1.6 0 00-.684-1.38 3.414 3.414 0 00-2-.492h-7.484a3.414 3.414 0 00-2 .492 1.6 1.6 0 00-.684 1.38 1.633 1.633 0 00.684 1.392 3.351 3.351 0 002 .5zm9.336 9.984q-.048-.552-.132-1.416t-.156-1.764q-.072-.9-.12-1.716t-.044-1.272v-9.888h2.64v9.888q0 .48-.048 1.3t-.12 1.716q-.072.9-.156 1.752t-.132 1.4zm2.376 4.848h-3.02v-3h3.024z"/></svg>