<svg xmlns="http://www.w3.org/2000/svg" width="20" height="20" viewBox="0 0 20 20"><defs><style>.cls-2{fill:#fff}</style></defs><g id="floating-icon-customercenter" transform="translate(-1805 -1273)"><path id="area" fill="none" d="M0 0h20v20H0z" transform="translate(1805 1273)"/><g id="그룹_26245"><path id="패스_9285" d="M256.17 245.432h-1.159a7.2 7.2 0 00-13.273 0H240.6a1.662 1.662 0 00-1.66 1.66v2.214a1.662 1.662 0 001.66 1.66h2.273l-.238-.726a6.1 6.1 0 1111.494-4.073v.012a4.824 4.824 0 01.26 1.011 6.1 6.1 0 01-.274 3.034v.007a6.076 6.076 0 01-5.721 4.057 1.66 1.66 0 101.65 1.66v-.748a7.187 7.187 0 004.956-4.233h1.166a1.662 1.662 0 001.661-1.66v-2.214a1.662 1.662 0 00-1.657-1.661z" class="cls-2" transform="translate(1566.615 1033.902)"/><path id="패스_9286" d="M247 253.863v1.107h4.982a4.981 4.981 0 10-3.918-1.9 1.1 1.1 0 01-1.064.8zm6.642-4.428h1.107v1.107h-1.107zm-2.214 0h1.107v1.107h-1.105zm-2.214 0h1.107v1.107h-1.107z" class="cls-2" transform="translate(1563.016 1032.114)"/></g></g></svg>